G04 #@! TF.GenerationSoftware,KiCad,Pcbnew,(5.1.10)-1*
G04 #@! TF.CreationDate,2021-07-15T20:03:02+02:00*
G04 #@! TF.ProjectId,wobbly,776f6262-6c79-42e6-9b69-6361645f7063,v1.0*
G04 #@! TF.SameCoordinates,Original*
G04 #@! TF.FileFunction,Legend,Bot*
G04 #@! TF.FilePolarity,Positive*
%FSLAX46Y46*%
G04 Gerber Fmt 4.6, Leading zero omitted, Abs format (unit mm)*
G04 Created by KiCad (PCBNEW (5.1.10)-1) date 2021-07-15 20:03:02*
%MOMM*%
%LPD*%
G01*
G04 APERTURE LIST*
%ADD10C,0.010000*%
%ADD11C,0.120000*%
%ADD12C,0.150000*%
G04 APERTURE END LIST*
D10*
G04 #@! TO.C,G18*
G36*
X101525917Y-59436000D02*
G01*
X106743500Y-59436000D01*
X106743500Y-58113083D01*
X106521250Y-58113083D01*
X106521250Y-59224333D01*
X105706334Y-59224333D01*
X105484084Y-59224333D01*
X105209191Y-59224333D01*
X105206408Y-58859260D01*
X105203625Y-58494186D01*
X104980289Y-58856614D01*
X104756953Y-59219041D01*
X104612519Y-59221986D01*
X104468084Y-59224930D01*
X104468084Y-58674000D01*
X104256050Y-58674000D01*
X104247484Y-58792104D01*
X104222164Y-58898598D01*
X104180654Y-58992679D01*
X104123518Y-59073549D01*
X104051323Y-59140405D01*
X103964631Y-59192447D01*
X103864834Y-59228656D01*
X103816059Y-59237427D01*
X103753285Y-59242770D01*
X103683400Y-59244673D01*
X103613295Y-59243121D01*
X103549859Y-59238100D01*
X103499983Y-59229595D01*
X103499287Y-59229418D01*
X103454889Y-59216461D01*
X103403605Y-59199131D01*
X103364806Y-59184439D01*
X103293403Y-59155541D01*
X103293368Y-59020604D01*
X103293661Y-58959853D01*
X103295926Y-58918549D01*
X103302188Y-58894972D01*
X103314472Y-58887403D01*
X103334805Y-58894123D01*
X103365210Y-58913410D01*
X103394888Y-58934408D01*
X103472714Y-58982722D01*
X103546114Y-59012672D01*
X103618507Y-59025554D01*
X103637292Y-59026265D01*
X103719964Y-59018234D01*
X103791306Y-58992376D01*
X103851052Y-58948856D01*
X103898931Y-58887839D01*
X103916579Y-58854621D01*
X103928570Y-58827095D01*
X103936508Y-58801786D01*
X103941211Y-58773186D01*
X103943499Y-58735785D01*
X103944190Y-58684074D01*
X103944209Y-58668708D01*
X103943706Y-58611762D01*
X103941696Y-58570496D01*
X103937420Y-58539437D01*
X103930125Y-58513111D01*
X103919054Y-58486045D01*
X103918959Y-58485834D01*
X103891489Y-58439504D01*
X103854063Y-58394934D01*
X103842789Y-58384178D01*
X103779459Y-58340510D01*
X103709184Y-58316078D01*
X103633619Y-58310778D01*
X103554419Y-58324504D01*
X103473238Y-58357152D01*
X103391733Y-58408618D01*
X103385846Y-58413085D01*
X103355208Y-58434014D01*
X103328187Y-58448054D01*
X103314409Y-58451750D01*
X103305773Y-58450555D01*
X103299884Y-58444715D01*
X103296219Y-58430842D01*
X103294255Y-58405550D01*
X103293468Y-58365453D01*
X103293334Y-58315357D01*
X103293334Y-58178964D01*
X103359480Y-58151358D01*
X103407929Y-58133337D01*
X103461991Y-58116429D01*
X103474847Y-58113083D01*
X102573667Y-58113083D01*
X102573667Y-59224333D01*
X101769334Y-59224333D01*
X101769334Y-59012666D01*
X102277334Y-59012666D01*
X102277334Y-58113083D01*
X102573667Y-58113083D01*
X103474847Y-58113083D01*
X103494417Y-58107990D01*
X103552645Y-58098654D01*
X103622678Y-58093516D01*
X103697319Y-58092561D01*
X103769373Y-58095777D01*
X103831644Y-58103148D01*
X103858015Y-58108682D01*
X103958116Y-58144487D01*
X104044932Y-58196330D01*
X104117785Y-58263248D01*
X104175994Y-58344276D01*
X104218881Y-58438450D01*
X104245767Y-58544805D01*
X104255972Y-58662376D01*
X104256050Y-58674000D01*
X104468084Y-58674000D01*
X104468084Y-58113083D01*
X104742926Y-58113083D01*
X104748542Y-58719795D01*
X104939145Y-58419085D01*
X105129747Y-58118375D01*
X105306915Y-58115473D01*
X105484084Y-58112571D01*
X105484084Y-59224333D01*
X105706334Y-59224333D01*
X105706334Y-59012666D01*
X106224917Y-59012666D01*
X106224917Y-58726916D01*
X105748667Y-58726916D01*
X105748667Y-58515250D01*
X106224917Y-58515250D01*
X106224917Y-58324750D01*
X105706334Y-58324750D01*
X105706334Y-58113083D01*
X106521250Y-58113083D01*
X106743500Y-58113083D01*
X106743500Y-57912000D01*
X101525917Y-57912000D01*
X101525917Y-59436000D01*
G37*
X101525917Y-59436000D02*
X106743500Y-59436000D01*
X106743500Y-58113083D01*
X106521250Y-58113083D01*
X106521250Y-59224333D01*
X105706334Y-59224333D01*
X105484084Y-59224333D01*
X105209191Y-59224333D01*
X105206408Y-58859260D01*
X105203625Y-58494186D01*
X104980289Y-58856614D01*
X104756953Y-59219041D01*
X104612519Y-59221986D01*
X104468084Y-59224930D01*
X104468084Y-58674000D01*
X104256050Y-58674000D01*
X104247484Y-58792104D01*
X104222164Y-58898598D01*
X104180654Y-58992679D01*
X104123518Y-59073549D01*
X104051323Y-59140405D01*
X103964631Y-59192447D01*
X103864834Y-59228656D01*
X103816059Y-59237427D01*
X103753285Y-59242770D01*
X103683400Y-59244673D01*
X103613295Y-59243121D01*
X103549859Y-59238100D01*
X103499983Y-59229595D01*
X103499287Y-59229418D01*
X103454889Y-59216461D01*
X103403605Y-59199131D01*
X103364806Y-59184439D01*
X103293403Y-59155541D01*
X103293368Y-59020604D01*
X103293661Y-58959853D01*
X103295926Y-58918549D01*
X103302188Y-58894972D01*
X103314472Y-58887403D01*
X103334805Y-58894123D01*
X103365210Y-58913410D01*
X103394888Y-58934408D01*
X103472714Y-58982722D01*
X103546114Y-59012672D01*
X103618507Y-59025554D01*
X103637292Y-59026265D01*
X103719964Y-59018234D01*
X103791306Y-58992376D01*
X103851052Y-58948856D01*
X103898931Y-58887839D01*
X103916579Y-58854621D01*
X103928570Y-58827095D01*
X103936508Y-58801786D01*
X103941211Y-58773186D01*
X103943499Y-58735785D01*
X103944190Y-58684074D01*
X103944209Y-58668708D01*
X103943706Y-58611762D01*
X103941696Y-58570496D01*
X103937420Y-58539437D01*
X103930125Y-58513111D01*
X103919054Y-58486045D01*
X103918959Y-58485834D01*
X103891489Y-58439504D01*
X103854063Y-58394934D01*
X103842789Y-58384178D01*
X103779459Y-58340510D01*
X103709184Y-58316078D01*
X103633619Y-58310778D01*
X103554419Y-58324504D01*
X103473238Y-58357152D01*
X103391733Y-58408618D01*
X103385846Y-58413085D01*
X103355208Y-58434014D01*
X103328187Y-58448054D01*
X103314409Y-58451750D01*
X103305773Y-58450555D01*
X103299884Y-58444715D01*
X103296219Y-58430842D01*
X103294255Y-58405550D01*
X103293468Y-58365453D01*
X103293334Y-58315357D01*
X103293334Y-58178964D01*
X103359480Y-58151358D01*
X103407929Y-58133337D01*
X103461991Y-58116429D01*
X103474847Y-58113083D01*
X102573667Y-58113083D01*
X102573667Y-59224333D01*
X101769334Y-59224333D01*
X101769334Y-59012666D01*
X102277334Y-59012666D01*
X102277334Y-58113083D01*
X102573667Y-58113083D01*
X103474847Y-58113083D01*
X103494417Y-58107990D01*
X103552645Y-58098654D01*
X103622678Y-58093516D01*
X103697319Y-58092561D01*
X103769373Y-58095777D01*
X103831644Y-58103148D01*
X103858015Y-58108682D01*
X103958116Y-58144487D01*
X104044932Y-58196330D01*
X104117785Y-58263248D01*
X104175994Y-58344276D01*
X104218881Y-58438450D01*
X104245767Y-58544805D01*
X104255972Y-58662376D01*
X104256050Y-58674000D01*
X104468084Y-58674000D01*
X104468084Y-58113083D01*
X104742926Y-58113083D01*
X104748542Y-58719795D01*
X104939145Y-58419085D01*
X105129747Y-58118375D01*
X105306915Y-58115473D01*
X105484084Y-58112571D01*
X105484084Y-59224333D01*
X105706334Y-59224333D01*
X105706334Y-59012666D01*
X106224917Y-59012666D01*
X106224917Y-58726916D01*
X105748667Y-58726916D01*
X105748667Y-58515250D01*
X106224917Y-58515250D01*
X106224917Y-58324750D01*
X105706334Y-58324750D01*
X105706334Y-58113083D01*
X106521250Y-58113083D01*
X106743500Y-58113083D01*
X106743500Y-57912000D01*
X101525917Y-57912000D01*
X101525917Y-59436000D01*
G04 #@! TO.C,G17*
G36*
X89465251Y-58317807D02*
G01*
X89401601Y-58323502D01*
X89350853Y-58331731D01*
X89317017Y-58341836D01*
X89315783Y-58342406D01*
X89280291Y-58369521D01*
X89259379Y-58407150D01*
X89252721Y-58450779D01*
X89259992Y-58495894D01*
X89280865Y-58537979D01*
X89315017Y-58572520D01*
X89333164Y-58583652D01*
X89356088Y-58590827D01*
X89393968Y-58597832D01*
X89440611Y-58603651D01*
X89469813Y-58606120D01*
X89577334Y-58613525D01*
X89577334Y-58310950D01*
X89465251Y-58317807D01*
G37*
X89465251Y-58317807D02*
X89401601Y-58323502D01*
X89350853Y-58331731D01*
X89317017Y-58341836D01*
X89315783Y-58342406D01*
X89280291Y-58369521D01*
X89259379Y-58407150D01*
X89252721Y-58450779D01*
X89259992Y-58495894D01*
X89280865Y-58537979D01*
X89315017Y-58572520D01*
X89333164Y-58583652D01*
X89356088Y-58590827D01*
X89393968Y-58597832D01*
X89440611Y-58603651D01*
X89469813Y-58606120D01*
X89577334Y-58613525D01*
X89577334Y-58310950D01*
X89465251Y-58317807D01*
G36*
X88571917Y-59436000D02*
G01*
X94043500Y-59436000D01*
X94043500Y-58113083D01*
X93821250Y-58113083D01*
X93821250Y-59224333D01*
X93006334Y-59224333D01*
X92784084Y-59224333D01*
X92509191Y-59224333D01*
X92506408Y-58859260D01*
X92503625Y-58494186D01*
X92280289Y-58856614D01*
X92056953Y-59219041D01*
X91912519Y-59221986D01*
X91768084Y-59224930D01*
X91768084Y-58674000D01*
X91556050Y-58674000D01*
X91547484Y-58792104D01*
X91522164Y-58898598D01*
X91480654Y-58992679D01*
X91423518Y-59073549D01*
X91351323Y-59140405D01*
X91264631Y-59192447D01*
X91164834Y-59228656D01*
X91116059Y-59237427D01*
X91053285Y-59242770D01*
X90983400Y-59244673D01*
X90913295Y-59243121D01*
X90849859Y-59238100D01*
X90799983Y-59229595D01*
X90799287Y-59229418D01*
X90781863Y-59224333D01*
X89873667Y-59224333D01*
X89577334Y-59224333D01*
X89577334Y-58810527D01*
X89456144Y-58816875D01*
X89307718Y-59020239D01*
X89159292Y-59223604D01*
X88982021Y-59223969D01*
X88923441Y-59223779D01*
X88873026Y-59223025D01*
X88834239Y-59221806D01*
X88810540Y-59220222D01*
X88804750Y-59218845D01*
X88810954Y-59209363D01*
X88828472Y-59185326D01*
X88855660Y-59148916D01*
X88890876Y-59102315D01*
X88932479Y-59047707D01*
X88978826Y-58987275D01*
X88985388Y-58978748D01*
X89166026Y-58744138D01*
X89136201Y-58728871D01*
X89074148Y-58687375D01*
X89020475Y-58632915D01*
X88990165Y-58587896D01*
X88973799Y-58554290D01*
X88963619Y-58521942D01*
X88957764Y-58483003D01*
X88954786Y-58438618D01*
X88953214Y-58391469D01*
X88954706Y-58358066D01*
X88960425Y-58331075D01*
X88971533Y-58303162D01*
X88978626Y-58288292D01*
X89010248Y-58236197D01*
X89050728Y-58194885D01*
X89105165Y-58159640D01*
X89132834Y-58145787D01*
X89191042Y-58118375D01*
X89532355Y-58115065D01*
X89873667Y-58111755D01*
X89873667Y-59224333D01*
X90781863Y-59224333D01*
X90754889Y-59216461D01*
X90703605Y-59199131D01*
X90664806Y-59184439D01*
X90593403Y-59155541D01*
X90593368Y-59020604D01*
X90593661Y-58959853D01*
X90595926Y-58918549D01*
X90602188Y-58894972D01*
X90614472Y-58887403D01*
X90634805Y-58894123D01*
X90665210Y-58913410D01*
X90694888Y-58934408D01*
X90772714Y-58982722D01*
X90846114Y-59012672D01*
X90918507Y-59025554D01*
X90937292Y-59026265D01*
X91019964Y-59018234D01*
X91091306Y-58992376D01*
X91151052Y-58948856D01*
X91198931Y-58887839D01*
X91216579Y-58854621D01*
X91228570Y-58827095D01*
X91236508Y-58801786D01*
X91241211Y-58773186D01*
X91243499Y-58735785D01*
X91244190Y-58684074D01*
X91244209Y-58668708D01*
X91243706Y-58611762D01*
X91241696Y-58570496D01*
X91237420Y-58539437D01*
X91230125Y-58513111D01*
X91219054Y-58486045D01*
X91218959Y-58485834D01*
X91191489Y-58439504D01*
X91154063Y-58394934D01*
X91142789Y-58384178D01*
X91079459Y-58340510D01*
X91009184Y-58316078D01*
X90933619Y-58310778D01*
X90854419Y-58324504D01*
X90773238Y-58357152D01*
X90691733Y-58408618D01*
X90685846Y-58413085D01*
X90655208Y-58434014D01*
X90628187Y-58448054D01*
X90614409Y-58451750D01*
X90605773Y-58450555D01*
X90599884Y-58444715D01*
X90596219Y-58430842D01*
X90594255Y-58405550D01*
X90593468Y-58365453D01*
X90593334Y-58315357D01*
X90593334Y-58178964D01*
X90659480Y-58151358D01*
X90707929Y-58133337D01*
X90761991Y-58116429D01*
X90794417Y-58107990D01*
X90852645Y-58098654D01*
X90922678Y-58093516D01*
X90997319Y-58092561D01*
X91069373Y-58095777D01*
X91131644Y-58103148D01*
X91158015Y-58108682D01*
X91258116Y-58144487D01*
X91344932Y-58196330D01*
X91417785Y-58263248D01*
X91475994Y-58344276D01*
X91518881Y-58438450D01*
X91545767Y-58544805D01*
X91555972Y-58662376D01*
X91556050Y-58674000D01*
X91768084Y-58674000D01*
X91768084Y-58113083D01*
X92042926Y-58113083D01*
X92048542Y-58719795D01*
X92239145Y-58419085D01*
X92429747Y-58118375D01*
X92606915Y-58115473D01*
X92784084Y-58112571D01*
X92784084Y-59224333D01*
X93006334Y-59224333D01*
X93006334Y-59012666D01*
X93524917Y-59012666D01*
X93524917Y-58726916D01*
X93048667Y-58726916D01*
X93048667Y-58515250D01*
X93524917Y-58515250D01*
X93524917Y-58324750D01*
X93006334Y-58324750D01*
X93006334Y-58113083D01*
X93821250Y-58113083D01*
X94043500Y-58113083D01*
X94043500Y-57912000D01*
X88571917Y-57912000D01*
X88571917Y-59436000D01*
G37*
X88571917Y-59436000D02*
X94043500Y-59436000D01*
X94043500Y-58113083D01*
X93821250Y-58113083D01*
X93821250Y-59224333D01*
X93006334Y-59224333D01*
X92784084Y-59224333D01*
X92509191Y-59224333D01*
X92506408Y-58859260D01*
X92503625Y-58494186D01*
X92280289Y-58856614D01*
X92056953Y-59219041D01*
X91912519Y-59221986D01*
X91768084Y-59224930D01*
X91768084Y-58674000D01*
X91556050Y-58674000D01*
X91547484Y-58792104D01*
X91522164Y-58898598D01*
X91480654Y-58992679D01*
X91423518Y-59073549D01*
X91351323Y-59140405D01*
X91264631Y-59192447D01*
X91164834Y-59228656D01*
X91116059Y-59237427D01*
X91053285Y-59242770D01*
X90983400Y-59244673D01*
X90913295Y-59243121D01*
X90849859Y-59238100D01*
X90799983Y-59229595D01*
X90799287Y-59229418D01*
X90781863Y-59224333D01*
X89873667Y-59224333D01*
X89577334Y-59224333D01*
X89577334Y-58810527D01*
X89456144Y-58816875D01*
X89307718Y-59020239D01*
X89159292Y-59223604D01*
X88982021Y-59223969D01*
X88923441Y-59223779D01*
X88873026Y-59223025D01*
X88834239Y-59221806D01*
X88810540Y-59220222D01*
X88804750Y-59218845D01*
X88810954Y-59209363D01*
X88828472Y-59185326D01*
X88855660Y-59148916D01*
X88890876Y-59102315D01*
X88932479Y-59047707D01*
X88978826Y-58987275D01*
X88985388Y-58978748D01*
X89166026Y-58744138D01*
X89136201Y-58728871D01*
X89074148Y-58687375D01*
X89020475Y-58632915D01*
X88990165Y-58587896D01*
X88973799Y-58554290D01*
X88963619Y-58521942D01*
X88957764Y-58483003D01*
X88954786Y-58438618D01*
X88953214Y-58391469D01*
X88954706Y-58358066D01*
X88960425Y-58331075D01*
X88971533Y-58303162D01*
X88978626Y-58288292D01*
X89010248Y-58236197D01*
X89050728Y-58194885D01*
X89105165Y-58159640D01*
X89132834Y-58145787D01*
X89191042Y-58118375D01*
X89532355Y-58115065D01*
X89873667Y-58111755D01*
X89873667Y-59224333D01*
X90781863Y-59224333D01*
X90754889Y-59216461D01*
X90703605Y-59199131D01*
X90664806Y-59184439D01*
X90593403Y-59155541D01*
X90593368Y-59020604D01*
X90593661Y-58959853D01*
X90595926Y-58918549D01*
X90602188Y-58894972D01*
X90614472Y-58887403D01*
X90634805Y-58894123D01*
X90665210Y-58913410D01*
X90694888Y-58934408D01*
X90772714Y-58982722D01*
X90846114Y-59012672D01*
X90918507Y-59025554D01*
X90937292Y-59026265D01*
X91019964Y-59018234D01*
X91091306Y-58992376D01*
X91151052Y-58948856D01*
X91198931Y-58887839D01*
X91216579Y-58854621D01*
X91228570Y-58827095D01*
X91236508Y-58801786D01*
X91241211Y-58773186D01*
X91243499Y-58735785D01*
X91244190Y-58684074D01*
X91244209Y-58668708D01*
X91243706Y-58611762D01*
X91241696Y-58570496D01*
X91237420Y-58539437D01*
X91230125Y-58513111D01*
X91219054Y-58486045D01*
X91218959Y-58485834D01*
X91191489Y-58439504D01*
X91154063Y-58394934D01*
X91142789Y-58384178D01*
X91079459Y-58340510D01*
X91009184Y-58316078D01*
X90933619Y-58310778D01*
X90854419Y-58324504D01*
X90773238Y-58357152D01*
X90691733Y-58408618D01*
X90685846Y-58413085D01*
X90655208Y-58434014D01*
X90628187Y-58448054D01*
X90614409Y-58451750D01*
X90605773Y-58450555D01*
X90599884Y-58444715D01*
X90596219Y-58430842D01*
X90594255Y-58405550D01*
X90593468Y-58365453D01*
X90593334Y-58315357D01*
X90593334Y-58178964D01*
X90659480Y-58151358D01*
X90707929Y-58133337D01*
X90761991Y-58116429D01*
X90794417Y-58107990D01*
X90852645Y-58098654D01*
X90922678Y-58093516D01*
X90997319Y-58092561D01*
X91069373Y-58095777D01*
X91131644Y-58103148D01*
X91158015Y-58108682D01*
X91258116Y-58144487D01*
X91344932Y-58196330D01*
X91417785Y-58263248D01*
X91475994Y-58344276D01*
X91518881Y-58438450D01*
X91545767Y-58544805D01*
X91555972Y-58662376D01*
X91556050Y-58674000D01*
X91768084Y-58674000D01*
X91768084Y-58113083D01*
X92042926Y-58113083D01*
X92048542Y-58719795D01*
X92239145Y-58419085D01*
X92429747Y-58118375D01*
X92606915Y-58115473D01*
X92784084Y-58112571D01*
X92784084Y-59224333D01*
X93006334Y-59224333D01*
X93006334Y-59012666D01*
X93524917Y-59012666D01*
X93524917Y-58726916D01*
X93048667Y-58726916D01*
X93048667Y-58515250D01*
X93524917Y-58515250D01*
X93524917Y-58324750D01*
X93006334Y-58324750D01*
X93006334Y-58113083D01*
X93821250Y-58113083D01*
X94043500Y-58113083D01*
X94043500Y-57912000D01*
X88571917Y-57912000D01*
X88571917Y-59436000D01*
G04 #@! TO.C,G16*
G36*
X74361746Y-58317874D02*
G01*
X74291888Y-58324088D01*
X74240050Y-58333816D01*
X74203200Y-58348350D01*
X74178306Y-58368980D01*
X74162340Y-58396997D01*
X74159858Y-58403879D01*
X74151746Y-58457296D01*
X74161832Y-58507674D01*
X74188199Y-58550478D01*
X74228927Y-58581177D01*
X74236303Y-58584519D01*
X74261351Y-58591355D01*
X74300844Y-58598132D01*
X74348081Y-58603796D01*
X74372109Y-58605853D01*
X74474917Y-58613400D01*
X74474917Y-58310950D01*
X74361746Y-58317874D01*
G37*
X74361746Y-58317874D02*
X74291888Y-58324088D01*
X74240050Y-58333816D01*
X74203200Y-58348350D01*
X74178306Y-58368980D01*
X74162340Y-58396997D01*
X74159858Y-58403879D01*
X74151746Y-58457296D01*
X74161832Y-58507674D01*
X74188199Y-58550478D01*
X74228927Y-58581177D01*
X74236303Y-58584519D01*
X74261351Y-58591355D01*
X74300844Y-58598132D01*
X74348081Y-58603796D01*
X74372109Y-58605853D01*
X74474917Y-58613400D01*
X74474917Y-58310950D01*
X74361746Y-58317874D01*
G36*
X75641730Y-58329042D02*
G01*
X75564574Y-58336861D01*
X75503726Y-58349211D01*
X75454544Y-58367594D01*
X75412387Y-58393511D01*
X75392691Y-58409589D01*
X75348314Y-58457607D01*
X75318389Y-58512544D01*
X75301375Y-58578352D01*
X75295734Y-58658125D01*
X75297146Y-58708320D01*
X75301435Y-58757168D01*
X75307764Y-58795969D01*
X75309760Y-58803752D01*
X75332563Y-58853884D01*
X75369221Y-58904051D01*
X75413694Y-58947061D01*
X75450500Y-58971310D01*
X75483597Y-58983245D01*
X75531640Y-58994347D01*
X75588408Y-59003608D01*
X75647682Y-59010021D01*
X75703240Y-59012578D01*
X75705230Y-59012586D01*
X75744917Y-59012666D01*
X75744917Y-58321849D01*
X75641730Y-58329042D01*
G37*
X75641730Y-58329042D02*
X75564574Y-58336861D01*
X75503726Y-58349211D01*
X75454544Y-58367594D01*
X75412387Y-58393511D01*
X75392691Y-58409589D01*
X75348314Y-58457607D01*
X75318389Y-58512544D01*
X75301375Y-58578352D01*
X75295734Y-58658125D01*
X75297146Y-58708320D01*
X75301435Y-58757168D01*
X75307764Y-58795969D01*
X75309760Y-58803752D01*
X75332563Y-58853884D01*
X75369221Y-58904051D01*
X75413694Y-58947061D01*
X75450500Y-58971310D01*
X75483597Y-58983245D01*
X75531640Y-58994347D01*
X75588408Y-59003608D01*
X75647682Y-59010021D01*
X75703240Y-59012578D01*
X75705230Y-59012586D01*
X75744917Y-59012666D01*
X75744917Y-58321849D01*
X75641730Y-58329042D01*
G36*
X72315917Y-59436000D02*
G01*
X76263500Y-59436000D01*
X76263500Y-58113083D01*
X76041250Y-58113083D01*
X76041250Y-59224333D01*
X74771250Y-59224333D01*
X74474917Y-59224333D01*
X74474917Y-58810527D01*
X74353727Y-58816875D01*
X74205301Y-59020239D01*
X74056875Y-59223604D01*
X73879605Y-59223969D01*
X73821024Y-59223779D01*
X73770610Y-59223025D01*
X73731822Y-59221806D01*
X73708123Y-59220222D01*
X73702334Y-59218845D01*
X73708538Y-59209363D01*
X73726055Y-59185326D01*
X73753243Y-59148916D01*
X73788459Y-59102315D01*
X73830062Y-59047707D01*
X73876409Y-58987275D01*
X73882972Y-58978748D01*
X74063610Y-58744138D01*
X74033784Y-58728871D01*
X73971731Y-58687375D01*
X73918059Y-58632915D01*
X73887749Y-58587896D01*
X73871383Y-58554290D01*
X73861202Y-58521942D01*
X73855347Y-58483003D01*
X73852369Y-58438618D01*
X73850798Y-58391469D01*
X73852290Y-58358066D01*
X73858008Y-58331075D01*
X73869116Y-58303162D01*
X73876210Y-58288292D01*
X73907832Y-58236197D01*
X73948311Y-58194885D01*
X74002748Y-58159640D01*
X74030417Y-58145787D01*
X74088625Y-58118375D01*
X74429938Y-58115065D01*
X74634312Y-58113083D01*
X73699466Y-58113083D01*
X73295418Y-59224333D01*
X72966249Y-59224333D01*
X72562201Y-58113083D01*
X72863756Y-58113083D01*
X72946278Y-58353854D01*
X72973087Y-58431957D01*
X73001017Y-58513126D01*
X73028220Y-58592003D01*
X73052849Y-58663233D01*
X73073056Y-58721462D01*
X73078166Y-58736127D01*
X73127533Y-58877629D01*
X73203559Y-58656752D01*
X73230373Y-58578813D01*
X73259127Y-58495171D01*
X73287610Y-58412261D01*
X73313612Y-58336518D01*
X73334856Y-58274568D01*
X73390125Y-58113262D01*
X73544796Y-58113172D01*
X73699466Y-58113083D01*
X74634312Y-58113083D01*
X74771250Y-58111755D01*
X74771250Y-59224333D01*
X76041250Y-59224333D01*
X75768730Y-59224149D01*
X75669439Y-59223637D01*
X75588911Y-59222176D01*
X75524756Y-59219659D01*
X75474585Y-59215975D01*
X75436012Y-59211018D01*
X75422125Y-59208411D01*
X75319956Y-59177408D01*
X75228678Y-59130158D01*
X75150859Y-59068059D01*
X75135795Y-59052538D01*
X75073674Y-58971486D01*
X75028504Y-58882826D01*
X74999855Y-58789082D01*
X74987297Y-58692779D01*
X74990402Y-58596440D01*
X75008740Y-58502589D01*
X75041880Y-58413750D01*
X75089394Y-58332447D01*
X75150852Y-58261203D01*
X75225824Y-58202544D01*
X75285937Y-58170400D01*
X75327168Y-58153708D01*
X75369680Y-58140454D01*
X75416488Y-58130282D01*
X75470607Y-58122835D01*
X75535053Y-58117757D01*
X75612841Y-58114691D01*
X75706986Y-58113282D01*
X75770929Y-58113083D01*
X76041250Y-58113083D01*
X76263500Y-58113083D01*
X76263500Y-57912000D01*
X72315917Y-57912000D01*
X72315917Y-59436000D01*
G37*
X72315917Y-59436000D02*
X76263500Y-59436000D01*
X76263500Y-58113083D01*
X76041250Y-58113083D01*
X76041250Y-59224333D01*
X74771250Y-59224333D01*
X74474917Y-59224333D01*
X74474917Y-58810527D01*
X74353727Y-58816875D01*
X74205301Y-59020239D01*
X74056875Y-59223604D01*
X73879605Y-59223969D01*
X73821024Y-59223779D01*
X73770610Y-59223025D01*
X73731822Y-59221806D01*
X73708123Y-59220222D01*
X73702334Y-59218845D01*
X73708538Y-59209363D01*
X73726055Y-59185326D01*
X73753243Y-59148916D01*
X73788459Y-59102315D01*
X73830062Y-59047707D01*
X73876409Y-58987275D01*
X73882972Y-58978748D01*
X74063610Y-58744138D01*
X74033784Y-58728871D01*
X73971731Y-58687375D01*
X73918059Y-58632915D01*
X73887749Y-58587896D01*
X73871383Y-58554290D01*
X73861202Y-58521942D01*
X73855347Y-58483003D01*
X73852369Y-58438618D01*
X73850798Y-58391469D01*
X73852290Y-58358066D01*
X73858008Y-58331075D01*
X73869116Y-58303162D01*
X73876210Y-58288292D01*
X73907832Y-58236197D01*
X73948311Y-58194885D01*
X74002748Y-58159640D01*
X74030417Y-58145787D01*
X74088625Y-58118375D01*
X74429938Y-58115065D01*
X74634312Y-58113083D01*
X73699466Y-58113083D01*
X73295418Y-59224333D01*
X72966249Y-59224333D01*
X72562201Y-58113083D01*
X72863756Y-58113083D01*
X72946278Y-58353854D01*
X72973087Y-58431957D01*
X73001017Y-58513126D01*
X73028220Y-58592003D01*
X73052849Y-58663233D01*
X73073056Y-58721462D01*
X73078166Y-58736127D01*
X73127533Y-58877629D01*
X73203559Y-58656752D01*
X73230373Y-58578813D01*
X73259127Y-58495171D01*
X73287610Y-58412261D01*
X73313612Y-58336518D01*
X73334856Y-58274568D01*
X73390125Y-58113262D01*
X73544796Y-58113172D01*
X73699466Y-58113083D01*
X74634312Y-58113083D01*
X74771250Y-58111755D01*
X74771250Y-59224333D01*
X76041250Y-59224333D01*
X75768730Y-59224149D01*
X75669439Y-59223637D01*
X75588911Y-59222176D01*
X75524756Y-59219659D01*
X75474585Y-59215975D01*
X75436012Y-59211018D01*
X75422125Y-59208411D01*
X75319956Y-59177408D01*
X75228678Y-59130158D01*
X75150859Y-59068059D01*
X75135795Y-59052538D01*
X75073674Y-58971486D01*
X75028504Y-58882826D01*
X74999855Y-58789082D01*
X74987297Y-58692779D01*
X74990402Y-58596440D01*
X75008740Y-58502589D01*
X75041880Y-58413750D01*
X75089394Y-58332447D01*
X75150852Y-58261203D01*
X75225824Y-58202544D01*
X75285937Y-58170400D01*
X75327168Y-58153708D01*
X75369680Y-58140454D01*
X75416488Y-58130282D01*
X75470607Y-58122835D01*
X75535053Y-58117757D01*
X75612841Y-58114691D01*
X75706986Y-58113282D01*
X75770929Y-58113083D01*
X76041250Y-58113083D01*
X76263500Y-58113083D01*
X76263500Y-57912000D01*
X72315917Y-57912000D01*
X72315917Y-59436000D01*
G04 #@! TO.C,G15*
G36*
X106158771Y-29743315D02*
G01*
X106100875Y-29748353D01*
X106060403Y-29754982D01*
X106033632Y-29763929D01*
X106023921Y-29769717D01*
X105996898Y-29800844D01*
X105984513Y-29839947D01*
X105986572Y-29880876D01*
X106002877Y-29917478D01*
X106029397Y-29941538D01*
X106060565Y-29952701D01*
X106109857Y-29961623D01*
X106164063Y-29967044D01*
X106267250Y-29974517D01*
X106267250Y-29736140D01*
X106158771Y-29743315D01*
G37*
X106158771Y-29743315D02*
X106100875Y-29748353D01*
X106060403Y-29754982D01*
X106033632Y-29763929D01*
X106023921Y-29769717D01*
X105996898Y-29800844D01*
X105984513Y-29839947D01*
X105986572Y-29880876D01*
X106002877Y-29917478D01*
X106029397Y-29941538D01*
X106060565Y-29952701D01*
X106109857Y-29961623D01*
X106164063Y-29967044D01*
X106267250Y-29974517D01*
X106267250Y-29736140D01*
X106158771Y-29743315D01*
G36*
X106140105Y-30166083D02*
G01*
X106064801Y-30171641D01*
X106008117Y-30180129D01*
X105967554Y-30193051D01*
X105940613Y-30211914D01*
X105924794Y-30238221D01*
X105917600Y-30273479D01*
X105916372Y-30300829D01*
X105920305Y-30346428D01*
X105934286Y-30381662D01*
X105960402Y-30407834D01*
X106000739Y-30426251D01*
X106057383Y-30438217D01*
X106132419Y-30445037D01*
X106148188Y-30445825D01*
X106267250Y-30451202D01*
X106267250Y-30159247D01*
X106140105Y-30166083D01*
G37*
X106140105Y-30166083D02*
X106064801Y-30171641D01*
X106008117Y-30180129D01*
X105967554Y-30193051D01*
X105940613Y-30211914D01*
X105924794Y-30238221D01*
X105917600Y-30273479D01*
X105916372Y-30300829D01*
X105920305Y-30346428D01*
X105934286Y-30381662D01*
X105960402Y-30407834D01*
X106000739Y-30426251D01*
X106057383Y-30438217D01*
X106132419Y-30445037D01*
X106148188Y-30445825D01*
X106267250Y-30451202D01*
X106267250Y-30159247D01*
X106140105Y-30166083D01*
G36*
X104288167Y-30861000D02*
G01*
X106785833Y-30861000D01*
X106785833Y-29538083D01*
X106563583Y-29538083D01*
X106563583Y-30649333D01*
X106263403Y-30649333D01*
X106182652Y-30648964D01*
X106106096Y-30647924D01*
X106037089Y-30646310D01*
X105978985Y-30644223D01*
X105935137Y-30641761D01*
X105908899Y-30639023D01*
X105907956Y-30638852D01*
X105822524Y-30612810D01*
X105746544Y-30569908D01*
X105683152Y-30512281D01*
X105645393Y-30460069D01*
X105625292Y-30410712D01*
X105613685Y-30349875D01*
X105611178Y-30285719D01*
X105618373Y-30226405D01*
X105626145Y-30200199D01*
X105653837Y-30151992D01*
X105696455Y-30106483D01*
X105747955Y-30069252D01*
X105788665Y-30050155D01*
X105841551Y-30031371D01*
X105795634Y-30002251D01*
X105743542Y-29959867D01*
X105709116Y-29908690D01*
X105690667Y-29845708D01*
X105686861Y-29807946D01*
X105686094Y-29761314D01*
X105690233Y-29727398D01*
X105700498Y-29698071D01*
X105704638Y-29689573D01*
X105745032Y-29632890D01*
X105801831Y-29589280D01*
X105871311Y-29559730D01*
X105893282Y-29553424D01*
X105915524Y-29548467D01*
X105940855Y-29544699D01*
X105972095Y-29541961D01*
X106012062Y-29540092D01*
X106063574Y-29538932D01*
X106129452Y-29538321D01*
X106212512Y-29538099D01*
X106252490Y-29538083D01*
X105515833Y-29538083D01*
X105515833Y-29749750D01*
X105166583Y-29749750D01*
X105166583Y-30649333D01*
X104870250Y-30649333D01*
X104870250Y-29749750D01*
X104521000Y-29749750D01*
X104521000Y-29538083D01*
X105515833Y-29538083D01*
X106252490Y-29538083D01*
X106563583Y-29538083D01*
X106785833Y-29538083D01*
X106785833Y-29337000D01*
X104288167Y-29337000D01*
X104288167Y-30861000D01*
G37*
X104288167Y-30861000D02*
X106785833Y-30861000D01*
X106785833Y-29538083D01*
X106563583Y-29538083D01*
X106563583Y-30649333D01*
X106263403Y-30649333D01*
X106182652Y-30648964D01*
X106106096Y-30647924D01*
X106037089Y-30646310D01*
X105978985Y-30644223D01*
X105935137Y-30641761D01*
X105908899Y-30639023D01*
X105907956Y-30638852D01*
X105822524Y-30612810D01*
X105746544Y-30569908D01*
X105683152Y-30512281D01*
X105645393Y-30460069D01*
X105625292Y-30410712D01*
X105613685Y-30349875D01*
X105611178Y-30285719D01*
X105618373Y-30226405D01*
X105626145Y-30200199D01*
X105653837Y-30151992D01*
X105696455Y-30106483D01*
X105747955Y-30069252D01*
X105788665Y-30050155D01*
X105841551Y-30031371D01*
X105795634Y-30002251D01*
X105743542Y-29959867D01*
X105709116Y-29908690D01*
X105690667Y-29845708D01*
X105686861Y-29807946D01*
X105686094Y-29761314D01*
X105690233Y-29727398D01*
X105700498Y-29698071D01*
X105704638Y-29689573D01*
X105745032Y-29632890D01*
X105801831Y-29589280D01*
X105871311Y-29559730D01*
X105893282Y-29553424D01*
X105915524Y-29548467D01*
X105940855Y-29544699D01*
X105972095Y-29541961D01*
X106012062Y-29540092D01*
X106063574Y-29538932D01*
X106129452Y-29538321D01*
X106212512Y-29538099D01*
X106252490Y-29538083D01*
X105515833Y-29538083D01*
X105515833Y-29749750D01*
X105166583Y-29749750D01*
X105166583Y-30649333D01*
X104870250Y-30649333D01*
X104870250Y-29749750D01*
X104521000Y-29749750D01*
X104521000Y-29538083D01*
X105515833Y-29538083D01*
X106252490Y-29538083D01*
X106563583Y-29538083D01*
X106785833Y-29538083D01*
X106785833Y-29337000D01*
X104288167Y-29337000D01*
X104288167Y-30861000D01*
G04 #@! TO.C,G14*
G36*
X62388750Y-30861000D02*
G01*
X66135250Y-30861000D01*
X66135250Y-29538083D01*
X65923584Y-29538083D01*
X65923584Y-29739166D01*
X65743667Y-29739166D01*
X65743667Y-30448250D01*
X65923584Y-30448250D01*
X65923584Y-30649333D01*
X65267417Y-30649333D01*
X65034584Y-30649333D01*
X64759417Y-30649333D01*
X64759083Y-30286854D01*
X64758748Y-29924375D01*
X64660759Y-30151916D01*
X64562769Y-30379458D01*
X64351959Y-30385114D01*
X64254509Y-30154744D01*
X64157058Y-29924375D01*
X64156613Y-30286854D01*
X64156167Y-30649333D01*
X63859834Y-30649333D01*
X63859834Y-29538083D01*
X63618354Y-29538083D01*
X63613841Y-29937604D01*
X63612538Y-30043202D01*
X63611169Y-30129885D01*
X63609622Y-30199903D01*
X63607783Y-30255506D01*
X63605538Y-30298946D01*
X63602773Y-30332474D01*
X63599376Y-30358340D01*
X63595233Y-30378795D01*
X63590814Y-30394311D01*
X63554163Y-30477590D01*
X63502853Y-30545786D01*
X63436533Y-30599213D01*
X63354853Y-30638186D01*
X63301456Y-30654012D01*
X63250003Y-30662511D01*
X63184688Y-30667557D01*
X63112529Y-30669148D01*
X63040548Y-30667279D01*
X62975766Y-30661948D01*
X62929417Y-30654188D01*
X62839681Y-30624315D01*
X62765274Y-30580225D01*
X62705124Y-30521075D01*
X62658158Y-30446024D01*
X62654764Y-30438936D01*
X62626875Y-30379458D01*
X62623774Y-29958770D01*
X62620672Y-29538083D01*
X62917917Y-29538083D01*
X62917917Y-29927424D01*
X62917949Y-30028536D01*
X62918128Y-30110747D01*
X62918576Y-30176323D01*
X62919418Y-30227528D01*
X62920777Y-30266628D01*
X62922777Y-30295888D01*
X62925541Y-30317575D01*
X62929193Y-30333952D01*
X62933857Y-30347287D01*
X62939655Y-30359843D01*
X62941730Y-30363986D01*
X62973135Y-30407573D01*
X63016655Y-30435972D01*
X63074159Y-30450141D01*
X63113709Y-30452218D01*
X63178351Y-30446296D01*
X63228079Y-30427463D01*
X63265869Y-30394117D01*
X63288334Y-30358291D01*
X63314792Y-30305375D01*
X63318249Y-29921729D01*
X63321705Y-29538083D01*
X63618354Y-29538083D01*
X63859834Y-29538083D01*
X64206405Y-29538083D01*
X64326490Y-29807393D01*
X64357795Y-29877064D01*
X64386399Y-29939701D01*
X64411168Y-29992902D01*
X64430969Y-30034267D01*
X64444668Y-30061393D01*
X64451130Y-30071881D01*
X64451391Y-30071887D01*
X64456838Y-30061335D01*
X64469765Y-30034011D01*
X64489002Y-29992459D01*
X64513378Y-29939223D01*
X64541723Y-29876849D01*
X64572865Y-29807882D01*
X64574062Y-29805222D01*
X64691915Y-29543375D01*
X64863250Y-29540467D01*
X65034584Y-29537559D01*
X65034584Y-30649333D01*
X65267417Y-30649333D01*
X65267417Y-30448250D01*
X65447334Y-30448250D01*
X65447334Y-29739166D01*
X65267417Y-29739166D01*
X65267417Y-29538083D01*
X65923584Y-29538083D01*
X66135250Y-29538083D01*
X66135250Y-29337000D01*
X62388750Y-29337000D01*
X62388750Y-30861000D01*
G37*
X62388750Y-30861000D02*
X66135250Y-30861000D01*
X66135250Y-29538083D01*
X65923584Y-29538083D01*
X65923584Y-29739166D01*
X65743667Y-29739166D01*
X65743667Y-30448250D01*
X65923584Y-30448250D01*
X65923584Y-30649333D01*
X65267417Y-30649333D01*
X65034584Y-30649333D01*
X64759417Y-30649333D01*
X64759083Y-30286854D01*
X64758748Y-29924375D01*
X64660759Y-30151916D01*
X64562769Y-30379458D01*
X64351959Y-30385114D01*
X64254509Y-30154744D01*
X64157058Y-29924375D01*
X64156613Y-30286854D01*
X64156167Y-30649333D01*
X63859834Y-30649333D01*
X63859834Y-29538083D01*
X63618354Y-29538083D01*
X63613841Y-29937604D01*
X63612538Y-30043202D01*
X63611169Y-30129885D01*
X63609622Y-30199903D01*
X63607783Y-30255506D01*
X63605538Y-30298946D01*
X63602773Y-30332474D01*
X63599376Y-30358340D01*
X63595233Y-30378795D01*
X63590814Y-30394311D01*
X63554163Y-30477590D01*
X63502853Y-30545786D01*
X63436533Y-30599213D01*
X63354853Y-30638186D01*
X63301456Y-30654012D01*
X63250003Y-30662511D01*
X63184688Y-30667557D01*
X63112529Y-30669148D01*
X63040548Y-30667279D01*
X62975766Y-30661948D01*
X62929417Y-30654188D01*
X62839681Y-30624315D01*
X62765274Y-30580225D01*
X62705124Y-30521075D01*
X62658158Y-30446024D01*
X62654764Y-30438936D01*
X62626875Y-30379458D01*
X62623774Y-29958770D01*
X62620672Y-29538083D01*
X62917917Y-29538083D01*
X62917917Y-29927424D01*
X62917949Y-30028536D01*
X62918128Y-30110747D01*
X62918576Y-30176323D01*
X62919418Y-30227528D01*
X62920777Y-30266628D01*
X62922777Y-30295888D01*
X62925541Y-30317575D01*
X62929193Y-30333952D01*
X62933857Y-30347287D01*
X62939655Y-30359843D01*
X62941730Y-30363986D01*
X62973135Y-30407573D01*
X63016655Y-30435972D01*
X63074159Y-30450141D01*
X63113709Y-30452218D01*
X63178351Y-30446296D01*
X63228079Y-30427463D01*
X63265869Y-30394117D01*
X63288334Y-30358291D01*
X63314792Y-30305375D01*
X63318249Y-29921729D01*
X63321705Y-29538083D01*
X63618354Y-29538083D01*
X63859834Y-29538083D01*
X64206405Y-29538083D01*
X64326490Y-29807393D01*
X64357795Y-29877064D01*
X64386399Y-29939701D01*
X64411168Y-29992902D01*
X64430969Y-30034267D01*
X64444668Y-30061393D01*
X64451130Y-30071881D01*
X64451391Y-30071887D01*
X64456838Y-30061335D01*
X64469765Y-30034011D01*
X64489002Y-29992459D01*
X64513378Y-29939223D01*
X64541723Y-29876849D01*
X64572865Y-29807882D01*
X64574062Y-29805222D01*
X64691915Y-29543375D01*
X64863250Y-29540467D01*
X65034584Y-29537559D01*
X65034584Y-30649333D01*
X65267417Y-30649333D01*
X65267417Y-30448250D01*
X65447334Y-30448250D01*
X65447334Y-29739166D01*
X65267417Y-29739166D01*
X65267417Y-29538083D01*
X65923584Y-29538083D01*
X66135250Y-29538083D01*
X66135250Y-29337000D01*
X62388750Y-29337000D01*
X62388750Y-30861000D01*
G04 #@! TO.C,G13*
G36*
X35330807Y-29258583D02*
G01*
X35336502Y-29322233D01*
X35344731Y-29372981D01*
X35354836Y-29406817D01*
X35355406Y-29408051D01*
X35382521Y-29443543D01*
X35420150Y-29464455D01*
X35463779Y-29471113D01*
X35508894Y-29463842D01*
X35550979Y-29442969D01*
X35585520Y-29408817D01*
X35596652Y-29390670D01*
X35603827Y-29367746D01*
X35610832Y-29329866D01*
X35616651Y-29283223D01*
X35619120Y-29254021D01*
X35626525Y-29146500D01*
X35323950Y-29146500D01*
X35330807Y-29258583D01*
G37*
X35330807Y-29258583D02*
X35336502Y-29322233D01*
X35344731Y-29372981D01*
X35354836Y-29406817D01*
X35355406Y-29408051D01*
X35382521Y-29443543D01*
X35420150Y-29464455D01*
X35463779Y-29471113D01*
X35508894Y-29463842D01*
X35550979Y-29442969D01*
X35585520Y-29408817D01*
X35596652Y-29390670D01*
X35603827Y-29367746D01*
X35610832Y-29329866D01*
X35616651Y-29283223D01*
X35619120Y-29254021D01*
X35626525Y-29146500D01*
X35323950Y-29146500D01*
X35330807Y-29258583D01*
G36*
X35342396Y-26412975D02*
G01*
X35350833Y-26488475D01*
X35364571Y-26545267D01*
X35385092Y-26585460D01*
X35413878Y-26611165D01*
X35452411Y-26624493D01*
X35493161Y-26627667D01*
X35546458Y-26622760D01*
X35587721Y-26606725D01*
X35618459Y-26577592D01*
X35640178Y-26533391D01*
X35654389Y-26472153D01*
X35661499Y-26407803D01*
X35668870Y-26310167D01*
X35334849Y-26310167D01*
X35342396Y-26412975D01*
G37*
X35342396Y-26412975D02*
X35350833Y-26488475D01*
X35364571Y-26545267D01*
X35385092Y-26585460D01*
X35413878Y-26611165D01*
X35452411Y-26624493D01*
X35493161Y-26627667D01*
X35546458Y-26622760D01*
X35587721Y-26606725D01*
X35618459Y-26577592D01*
X35640178Y-26533391D01*
X35654389Y-26472153D01*
X35661499Y-26407803D01*
X35668870Y-26310167D01*
X35334849Y-26310167D01*
X35342396Y-26412975D01*
G36*
X36449000Y-33401000D02*
G01*
X36449000Y-25791584D01*
X36237333Y-25791584D01*
X36237333Y-26013834D01*
X36237333Y-26310167D01*
X35879761Y-26310167D01*
X35875985Y-26471791D01*
X35874354Y-26534122D01*
X35872341Y-26579828D01*
X35869206Y-26613447D01*
X35864209Y-26639517D01*
X35856609Y-26662576D01*
X35845666Y-26687163D01*
X35838449Y-26701979D01*
X35788778Y-26784779D01*
X35730219Y-26848620D01*
X35661820Y-26894168D01*
X35582626Y-26922087D01*
X35508145Y-26932340D01*
X35416374Y-26929364D01*
X35336397Y-26909308D01*
X35268717Y-26872413D01*
X35213840Y-26818921D01*
X35187117Y-26778690D01*
X35170437Y-26747494D01*
X35157097Y-26717805D01*
X35146729Y-26686793D01*
X35138962Y-26651632D01*
X35133427Y-26609495D01*
X35129753Y-26557552D01*
X35127573Y-26492976D01*
X35126514Y-26412940D01*
X35126209Y-26314615D01*
X35126208Y-26312813D01*
X35126083Y-26013834D01*
X36237333Y-26013834D01*
X36237333Y-25791584D01*
X35125526Y-25791584D01*
X35125526Y-27041956D01*
X35239575Y-27072858D01*
X35274687Y-27082343D01*
X35327383Y-27096537D01*
X35394804Y-27114674D01*
X35474089Y-27135983D01*
X35562377Y-27159697D01*
X35656810Y-27185046D01*
X35754525Y-27211263D01*
X35795737Y-27222315D01*
X36237849Y-27340870D01*
X36232041Y-27668014D01*
X35890761Y-27759028D01*
X35809501Y-27780851D01*
X35735160Y-27801110D01*
X35670113Y-27819134D01*
X35616732Y-27834254D01*
X35577391Y-27845801D01*
X35554463Y-27853103D01*
X35549448Y-27855344D01*
X35559263Y-27859295D01*
X35587152Y-27868096D01*
X35630758Y-27881064D01*
X35687725Y-27897518D01*
X35755696Y-27916775D01*
X35832314Y-27938151D01*
X35893375Y-27954982D01*
X36237333Y-28049317D01*
X36237333Y-28372275D01*
X36237333Y-28850167D01*
X36237333Y-29146500D01*
X35823527Y-29146500D01*
X35829875Y-29267690D01*
X36033239Y-29416116D01*
X36236604Y-29564542D01*
X36236969Y-29741813D01*
X36236779Y-29800393D01*
X36236025Y-29850808D01*
X36234806Y-29889595D01*
X36233222Y-29913294D01*
X36231845Y-29919084D01*
X36222363Y-29912880D01*
X36198326Y-29895362D01*
X36161916Y-29868174D01*
X36115315Y-29832958D01*
X36060707Y-29791355D01*
X36000275Y-29745008D01*
X35991748Y-29738446D01*
X35987631Y-29735277D01*
X35987631Y-30502408D01*
X36042625Y-30503464D01*
X36044122Y-30503496D01*
X36178995Y-30506459D01*
X36202540Y-30572564D01*
X36227920Y-30654033D01*
X36244810Y-30734736D01*
X36254342Y-30821826D01*
X36257637Y-30920161D01*
X36256933Y-30992878D01*
X36253423Y-31050823D01*
X36246543Y-31100274D01*
X36237985Y-31138909D01*
X36205257Y-31236528D01*
X36161494Y-31316188D01*
X36106476Y-31378124D01*
X36039984Y-31422573D01*
X35961799Y-31449769D01*
X35945639Y-31453000D01*
X35874298Y-31458219D01*
X35804070Y-31449833D01*
X35743111Y-31428846D01*
X35741135Y-31427839D01*
X35703524Y-31400363D01*
X35664562Y-31358426D01*
X35628896Y-31307862D01*
X35601176Y-31254508D01*
X35599142Y-31249550D01*
X35586878Y-31214152D01*
X35572088Y-31164235D01*
X35556504Y-31106013D01*
X35541857Y-31045699D01*
X35539682Y-31036121D01*
X35522722Y-30963771D01*
X35507919Y-30909650D01*
X35493911Y-30871118D01*
X35479338Y-30845532D01*
X35462837Y-30830249D01*
X35443047Y-30822629D01*
X35428629Y-30820602D01*
X35386441Y-30825516D01*
X35354101Y-30848301D01*
X35331441Y-30889260D01*
X35318293Y-30948694D01*
X35314476Y-31025316D01*
X35322916Y-31113544D01*
X35345346Y-31203766D01*
X35379301Y-31287469D01*
X35401966Y-31327593D01*
X35422020Y-31360129D01*
X35432241Y-31382916D01*
X35430561Y-31397688D01*
X35414916Y-31406182D01*
X35383238Y-31410132D01*
X35333462Y-31411273D01*
X35302250Y-31411334D01*
X35171500Y-31411334D01*
X35149283Y-31334604D01*
X35127666Y-31251640D01*
X35125526Y-31239830D01*
X35125526Y-31550456D01*
X35239575Y-31581358D01*
X35274687Y-31590843D01*
X35327383Y-31605037D01*
X35394804Y-31623174D01*
X35474089Y-31644483D01*
X35562377Y-31668197D01*
X35656810Y-31693546D01*
X35754525Y-31719763D01*
X35795737Y-31730815D01*
X36237849Y-31849370D01*
X36232041Y-32176514D01*
X35890761Y-32267528D01*
X35809501Y-32289351D01*
X35735160Y-32309610D01*
X35670113Y-32327634D01*
X35616732Y-32342754D01*
X35577391Y-32354301D01*
X35554463Y-32361603D01*
X35549448Y-32363844D01*
X35559263Y-32367795D01*
X35587152Y-32376596D01*
X35630758Y-32389564D01*
X35687725Y-32406018D01*
X35755696Y-32425275D01*
X35832314Y-32446651D01*
X35893375Y-32463482D01*
X36237333Y-32557817D01*
X36237333Y-32880775D01*
X36202937Y-32891701D01*
X36185897Y-32896622D01*
X36151469Y-32906161D01*
X36101983Y-32919692D01*
X36039769Y-32936591D01*
X35967157Y-32956234D01*
X35886477Y-32977995D01*
X35800059Y-33001251D01*
X35710234Y-33025377D01*
X35619331Y-33049749D01*
X35529680Y-33073741D01*
X35443611Y-33096729D01*
X35363455Y-33118089D01*
X35291542Y-33137195D01*
X35230200Y-33153425D01*
X35181762Y-33166152D01*
X35148556Y-33174753D01*
X35132912Y-33178602D01*
X35132040Y-33178750D01*
X35129894Y-33168800D01*
X35128092Y-33141480D01*
X35126786Y-33100585D01*
X35126130Y-33049912D01*
X35126083Y-33031297D01*
X35126338Y-32972192D01*
X35127374Y-32930920D01*
X35129592Y-32904148D01*
X35133396Y-32888545D01*
X35139190Y-32880779D01*
X35144604Y-32878235D01*
X35159067Y-32874559D01*
X35191587Y-32866709D01*
X35239597Y-32855291D01*
X35300535Y-32840910D01*
X35371835Y-32824172D01*
X35450933Y-32805684D01*
X35507083Y-32792603D01*
X35589488Y-32773409D01*
X35665389Y-32755690D01*
X35732306Y-32740028D01*
X35787758Y-32727004D01*
X35829265Y-32717202D01*
X35854346Y-32711203D01*
X35860778Y-32709585D01*
X35853166Y-32706418D01*
X35827220Y-32698719D01*
X35785145Y-32687076D01*
X35729142Y-32672081D01*
X35661418Y-32654323D01*
X35584174Y-32634392D01*
X35499616Y-32612877D01*
X35498022Y-32612474D01*
X35125527Y-32518357D01*
X35128451Y-32370039D01*
X35131375Y-32221720D01*
X35496500Y-32124545D01*
X35579873Y-32102080D01*
X35655689Y-32081117D01*
X35721784Y-32062297D01*
X35775991Y-32046260D01*
X35816144Y-32033646D01*
X35840079Y-32025095D01*
X35845750Y-32021289D01*
X35831938Y-32017613D01*
X35799982Y-32009959D01*
X35752410Y-31998905D01*
X35691748Y-31985030D01*
X35620521Y-31968913D01*
X35541258Y-31951133D01*
X35480625Y-31937625D01*
X35131375Y-31860042D01*
X35128450Y-31705249D01*
X35125526Y-31550456D01*
X35125526Y-31239830D01*
X35113981Y-31176115D01*
X35106899Y-31098419D01*
X35105073Y-31015161D01*
X35111726Y-30897839D01*
X35131610Y-30796247D01*
X35165112Y-30709287D01*
X35212622Y-30635864D01*
X35255225Y-30591209D01*
X35320121Y-30546454D01*
X35392929Y-30519878D01*
X35469985Y-30511941D01*
X35547619Y-30523104D01*
X35609021Y-30546772D01*
X35653947Y-30574536D01*
X35692239Y-30610020D01*
X35725175Y-30655619D01*
X35754029Y-30713730D01*
X35780079Y-30786747D01*
X35804600Y-30877068D01*
X35819350Y-30941672D01*
X35830810Y-30992012D01*
X35842000Y-31036520D01*
X35851556Y-31070041D01*
X35857601Y-31086489D01*
X35887679Y-31129328D01*
X35921867Y-31152554D01*
X35957436Y-31156145D01*
X35991661Y-31140077D01*
X36021814Y-31104329D01*
X36030540Y-31087927D01*
X36040868Y-31052247D01*
X36046833Y-31002000D01*
X36048411Y-30943335D01*
X36045581Y-30882402D01*
X36038319Y-30825349D01*
X36031623Y-30794781D01*
X36014252Y-30742816D01*
X35989146Y-30683455D01*
X35960449Y-30625635D01*
X35932306Y-30578292D01*
X35929076Y-30573616D01*
X35914912Y-30546755D01*
X35909250Y-30523029D01*
X35910106Y-30513802D01*
X35914955Y-30507620D01*
X35927213Y-30503991D01*
X35950300Y-30502418D01*
X35987631Y-30502408D01*
X35987631Y-29735277D01*
X35757138Y-29557808D01*
X35741871Y-29587633D01*
X35700375Y-29649686D01*
X35645915Y-29703359D01*
X35600896Y-29733669D01*
X35567290Y-29750035D01*
X35534942Y-29760215D01*
X35496003Y-29766070D01*
X35451618Y-29769048D01*
X35404469Y-29770620D01*
X35371066Y-29769128D01*
X35344075Y-29763409D01*
X35316162Y-29752301D01*
X35301292Y-29745208D01*
X35249197Y-29713586D01*
X35207885Y-29673106D01*
X35172640Y-29618669D01*
X35158787Y-29591000D01*
X35131375Y-29532792D01*
X35128065Y-29191479D01*
X35124755Y-28850167D01*
X36237333Y-28850167D01*
X36237333Y-28372275D01*
X36202937Y-28383201D01*
X36185897Y-28388122D01*
X36151469Y-28397661D01*
X36101983Y-28411192D01*
X36039769Y-28428091D01*
X35967157Y-28447734D01*
X35886477Y-28469495D01*
X35800059Y-28492751D01*
X35710234Y-28516877D01*
X35619331Y-28541249D01*
X35529680Y-28565241D01*
X35443611Y-28588229D01*
X35363455Y-28609589D01*
X35291542Y-28628695D01*
X35230200Y-28644925D01*
X35181762Y-28657652D01*
X35148556Y-28666253D01*
X35132912Y-28670102D01*
X35132040Y-28670250D01*
X35129894Y-28660300D01*
X35128092Y-28632980D01*
X35126786Y-28592085D01*
X35126130Y-28541412D01*
X35126083Y-28522797D01*
X35126338Y-28463692D01*
X35127374Y-28422420D01*
X35129592Y-28395648D01*
X35133396Y-28380045D01*
X35139190Y-28372279D01*
X35144604Y-28369735D01*
X35159067Y-28366059D01*
X35191587Y-28358209D01*
X35239597Y-28346791D01*
X35300535Y-28332410D01*
X35371835Y-28315672D01*
X35450933Y-28297184D01*
X35507083Y-28284103D01*
X35589488Y-28264909D01*
X35665389Y-28247190D01*
X35732306Y-28231528D01*
X35787758Y-28218504D01*
X35829265Y-28208702D01*
X35854346Y-28202703D01*
X35860778Y-28201085D01*
X35853166Y-28197918D01*
X35827220Y-28190219D01*
X35785145Y-28178576D01*
X35729142Y-28163581D01*
X35661418Y-28145823D01*
X35584174Y-28125892D01*
X35499616Y-28104377D01*
X35498022Y-28103974D01*
X35125527Y-28009857D01*
X35128451Y-27861539D01*
X35131375Y-27713220D01*
X35496500Y-27616045D01*
X35579873Y-27593580D01*
X35655689Y-27572617D01*
X35721784Y-27553797D01*
X35775991Y-27537760D01*
X35816144Y-27525146D01*
X35840079Y-27516595D01*
X35845750Y-27512789D01*
X35831938Y-27509113D01*
X35799982Y-27501459D01*
X35752410Y-27490405D01*
X35691748Y-27476530D01*
X35620521Y-27460413D01*
X35541258Y-27442633D01*
X35480625Y-27429125D01*
X35131375Y-27351542D01*
X35128450Y-27196749D01*
X35125526Y-27041956D01*
X35125526Y-25791584D01*
X34925000Y-25791584D01*
X34925000Y-33401000D01*
X36449000Y-33401000D01*
G37*
X36449000Y-33401000D02*
X36449000Y-25791584D01*
X36237333Y-25791584D01*
X36237333Y-26013834D01*
X36237333Y-26310167D01*
X35879761Y-26310167D01*
X35875985Y-26471791D01*
X35874354Y-26534122D01*
X35872341Y-26579828D01*
X35869206Y-26613447D01*
X35864209Y-26639517D01*
X35856609Y-26662576D01*
X35845666Y-26687163D01*
X35838449Y-26701979D01*
X35788778Y-26784779D01*
X35730219Y-26848620D01*
X35661820Y-26894168D01*
X35582626Y-26922087D01*
X35508145Y-26932340D01*
X35416374Y-26929364D01*
X35336397Y-26909308D01*
X35268717Y-26872413D01*
X35213840Y-26818921D01*
X35187117Y-26778690D01*
X35170437Y-26747494D01*
X35157097Y-26717805D01*
X35146729Y-26686793D01*
X35138962Y-26651632D01*
X35133427Y-26609495D01*
X35129753Y-26557552D01*
X35127573Y-26492976D01*
X35126514Y-26412940D01*
X35126209Y-26314615D01*
X35126208Y-26312813D01*
X35126083Y-26013834D01*
X36237333Y-26013834D01*
X36237333Y-25791584D01*
X35125526Y-25791584D01*
X35125526Y-27041956D01*
X35239575Y-27072858D01*
X35274687Y-27082343D01*
X35327383Y-27096537D01*
X35394804Y-27114674D01*
X35474089Y-27135983D01*
X35562377Y-27159697D01*
X35656810Y-27185046D01*
X35754525Y-27211263D01*
X35795737Y-27222315D01*
X36237849Y-27340870D01*
X36232041Y-27668014D01*
X35890761Y-27759028D01*
X35809501Y-27780851D01*
X35735160Y-27801110D01*
X35670113Y-27819134D01*
X35616732Y-27834254D01*
X35577391Y-27845801D01*
X35554463Y-27853103D01*
X35549448Y-27855344D01*
X35559263Y-27859295D01*
X35587152Y-27868096D01*
X35630758Y-27881064D01*
X35687725Y-27897518D01*
X35755696Y-27916775D01*
X35832314Y-27938151D01*
X35893375Y-27954982D01*
X36237333Y-28049317D01*
X36237333Y-28372275D01*
X36237333Y-28850167D01*
X36237333Y-29146500D01*
X35823527Y-29146500D01*
X35829875Y-29267690D01*
X36033239Y-29416116D01*
X36236604Y-29564542D01*
X36236969Y-29741813D01*
X36236779Y-29800393D01*
X36236025Y-29850808D01*
X36234806Y-29889595D01*
X36233222Y-29913294D01*
X36231845Y-29919084D01*
X36222363Y-29912880D01*
X36198326Y-29895362D01*
X36161916Y-29868174D01*
X36115315Y-29832958D01*
X36060707Y-29791355D01*
X36000275Y-29745008D01*
X35991748Y-29738446D01*
X35987631Y-29735277D01*
X35987631Y-30502408D01*
X36042625Y-30503464D01*
X36044122Y-30503496D01*
X36178995Y-30506459D01*
X36202540Y-30572564D01*
X36227920Y-30654033D01*
X36244810Y-30734736D01*
X36254342Y-30821826D01*
X36257637Y-30920161D01*
X36256933Y-30992878D01*
X36253423Y-31050823D01*
X36246543Y-31100274D01*
X36237985Y-31138909D01*
X36205257Y-31236528D01*
X36161494Y-31316188D01*
X36106476Y-31378124D01*
X36039984Y-31422573D01*
X35961799Y-31449769D01*
X35945639Y-31453000D01*
X35874298Y-31458219D01*
X35804070Y-31449833D01*
X35743111Y-31428846D01*
X35741135Y-31427839D01*
X35703524Y-31400363D01*
X35664562Y-31358426D01*
X35628896Y-31307862D01*
X35601176Y-31254508D01*
X35599142Y-31249550D01*
X35586878Y-31214152D01*
X35572088Y-31164235D01*
X35556504Y-31106013D01*
X35541857Y-31045699D01*
X35539682Y-31036121D01*
X35522722Y-30963771D01*
X35507919Y-30909650D01*
X35493911Y-30871118D01*
X35479338Y-30845532D01*
X35462837Y-30830249D01*
X35443047Y-30822629D01*
X35428629Y-30820602D01*
X35386441Y-30825516D01*
X35354101Y-30848301D01*
X35331441Y-30889260D01*
X35318293Y-30948694D01*
X35314476Y-31025316D01*
X35322916Y-31113544D01*
X35345346Y-31203766D01*
X35379301Y-31287469D01*
X35401966Y-31327593D01*
X35422020Y-31360129D01*
X35432241Y-31382916D01*
X35430561Y-31397688D01*
X35414916Y-31406182D01*
X35383238Y-31410132D01*
X35333462Y-31411273D01*
X35302250Y-31411334D01*
X35171500Y-31411334D01*
X35149283Y-31334604D01*
X35127666Y-31251640D01*
X35125526Y-31239830D01*
X35125526Y-31550456D01*
X35239575Y-31581358D01*
X35274687Y-31590843D01*
X35327383Y-31605037D01*
X35394804Y-31623174D01*
X35474089Y-31644483D01*
X35562377Y-31668197D01*
X35656810Y-31693546D01*
X35754525Y-31719763D01*
X35795737Y-31730815D01*
X36237849Y-31849370D01*
X36232041Y-32176514D01*
X35890761Y-32267528D01*
X35809501Y-32289351D01*
X35735160Y-32309610D01*
X35670113Y-32327634D01*
X35616732Y-32342754D01*
X35577391Y-32354301D01*
X35554463Y-32361603D01*
X35549448Y-32363844D01*
X35559263Y-32367795D01*
X35587152Y-32376596D01*
X35630758Y-32389564D01*
X35687725Y-32406018D01*
X35755696Y-32425275D01*
X35832314Y-32446651D01*
X35893375Y-32463482D01*
X36237333Y-32557817D01*
X36237333Y-32880775D01*
X36202937Y-32891701D01*
X36185897Y-32896622D01*
X36151469Y-32906161D01*
X36101983Y-32919692D01*
X36039769Y-32936591D01*
X35967157Y-32956234D01*
X35886477Y-32977995D01*
X35800059Y-33001251D01*
X35710234Y-33025377D01*
X35619331Y-33049749D01*
X35529680Y-33073741D01*
X35443611Y-33096729D01*
X35363455Y-33118089D01*
X35291542Y-33137195D01*
X35230200Y-33153425D01*
X35181762Y-33166152D01*
X35148556Y-33174753D01*
X35132912Y-33178602D01*
X35132040Y-33178750D01*
X35129894Y-33168800D01*
X35128092Y-33141480D01*
X35126786Y-33100585D01*
X35126130Y-33049912D01*
X35126083Y-33031297D01*
X35126338Y-32972192D01*
X35127374Y-32930920D01*
X35129592Y-32904148D01*
X35133396Y-32888545D01*
X35139190Y-32880779D01*
X35144604Y-32878235D01*
X35159067Y-32874559D01*
X35191587Y-32866709D01*
X35239597Y-32855291D01*
X35300535Y-32840910D01*
X35371835Y-32824172D01*
X35450933Y-32805684D01*
X35507083Y-32792603D01*
X35589488Y-32773409D01*
X35665389Y-32755690D01*
X35732306Y-32740028D01*
X35787758Y-32727004D01*
X35829265Y-32717202D01*
X35854346Y-32711203D01*
X35860778Y-32709585D01*
X35853166Y-32706418D01*
X35827220Y-32698719D01*
X35785145Y-32687076D01*
X35729142Y-32672081D01*
X35661418Y-32654323D01*
X35584174Y-32634392D01*
X35499616Y-32612877D01*
X35498022Y-32612474D01*
X35125527Y-32518357D01*
X35128451Y-32370039D01*
X35131375Y-32221720D01*
X35496500Y-32124545D01*
X35579873Y-32102080D01*
X35655689Y-32081117D01*
X35721784Y-32062297D01*
X35775991Y-32046260D01*
X35816144Y-32033646D01*
X35840079Y-32025095D01*
X35845750Y-32021289D01*
X35831938Y-32017613D01*
X35799982Y-32009959D01*
X35752410Y-31998905D01*
X35691748Y-31985030D01*
X35620521Y-31968913D01*
X35541258Y-31951133D01*
X35480625Y-31937625D01*
X35131375Y-31860042D01*
X35128450Y-31705249D01*
X35125526Y-31550456D01*
X35125526Y-31239830D01*
X35113981Y-31176115D01*
X35106899Y-31098419D01*
X35105073Y-31015161D01*
X35111726Y-30897839D01*
X35131610Y-30796247D01*
X35165112Y-30709287D01*
X35212622Y-30635864D01*
X35255225Y-30591209D01*
X35320121Y-30546454D01*
X35392929Y-30519878D01*
X35469985Y-30511941D01*
X35547619Y-30523104D01*
X35609021Y-30546772D01*
X35653947Y-30574536D01*
X35692239Y-30610020D01*
X35725175Y-30655619D01*
X35754029Y-30713730D01*
X35780079Y-30786747D01*
X35804600Y-30877068D01*
X35819350Y-30941672D01*
X35830810Y-30992012D01*
X35842000Y-31036520D01*
X35851556Y-31070041D01*
X35857601Y-31086489D01*
X35887679Y-31129328D01*
X35921867Y-31152554D01*
X35957436Y-31156145D01*
X35991661Y-31140077D01*
X36021814Y-31104329D01*
X36030540Y-31087927D01*
X36040868Y-31052247D01*
X36046833Y-31002000D01*
X36048411Y-30943335D01*
X36045581Y-30882402D01*
X36038319Y-30825349D01*
X36031623Y-30794781D01*
X36014252Y-30742816D01*
X35989146Y-30683455D01*
X35960449Y-30625635D01*
X35932306Y-30578292D01*
X35929076Y-30573616D01*
X35914912Y-30546755D01*
X35909250Y-30523029D01*
X35910106Y-30513802D01*
X35914955Y-30507620D01*
X35927213Y-30503991D01*
X35950300Y-30502418D01*
X35987631Y-30502408D01*
X35987631Y-29735277D01*
X35757138Y-29557808D01*
X35741871Y-29587633D01*
X35700375Y-29649686D01*
X35645915Y-29703359D01*
X35600896Y-29733669D01*
X35567290Y-29750035D01*
X35534942Y-29760215D01*
X35496003Y-29766070D01*
X35451618Y-29769048D01*
X35404469Y-29770620D01*
X35371066Y-29769128D01*
X35344075Y-29763409D01*
X35316162Y-29752301D01*
X35301292Y-29745208D01*
X35249197Y-29713586D01*
X35207885Y-29673106D01*
X35172640Y-29618669D01*
X35158787Y-29591000D01*
X35131375Y-29532792D01*
X35128065Y-29191479D01*
X35124755Y-28850167D01*
X36237333Y-28850167D01*
X36237333Y-28372275D01*
X36202937Y-28383201D01*
X36185897Y-28388122D01*
X36151469Y-28397661D01*
X36101983Y-28411192D01*
X36039769Y-28428091D01*
X35967157Y-28447734D01*
X35886477Y-28469495D01*
X35800059Y-28492751D01*
X35710234Y-28516877D01*
X35619331Y-28541249D01*
X35529680Y-28565241D01*
X35443611Y-28588229D01*
X35363455Y-28609589D01*
X35291542Y-28628695D01*
X35230200Y-28644925D01*
X35181762Y-28657652D01*
X35148556Y-28666253D01*
X35132912Y-28670102D01*
X35132040Y-28670250D01*
X35129894Y-28660300D01*
X35128092Y-28632980D01*
X35126786Y-28592085D01*
X35126130Y-28541412D01*
X35126083Y-28522797D01*
X35126338Y-28463692D01*
X35127374Y-28422420D01*
X35129592Y-28395648D01*
X35133396Y-28380045D01*
X35139190Y-28372279D01*
X35144604Y-28369735D01*
X35159067Y-28366059D01*
X35191587Y-28358209D01*
X35239597Y-28346791D01*
X35300535Y-28332410D01*
X35371835Y-28315672D01*
X35450933Y-28297184D01*
X35507083Y-28284103D01*
X35589488Y-28264909D01*
X35665389Y-28247190D01*
X35732306Y-28231528D01*
X35787758Y-28218504D01*
X35829265Y-28208702D01*
X35854346Y-28202703D01*
X35860778Y-28201085D01*
X35853166Y-28197918D01*
X35827220Y-28190219D01*
X35785145Y-28178576D01*
X35729142Y-28163581D01*
X35661418Y-28145823D01*
X35584174Y-28125892D01*
X35499616Y-28104377D01*
X35498022Y-28103974D01*
X35125527Y-28009857D01*
X35128451Y-27861539D01*
X35131375Y-27713220D01*
X35496500Y-27616045D01*
X35579873Y-27593580D01*
X35655689Y-27572617D01*
X35721784Y-27553797D01*
X35775991Y-27537760D01*
X35816144Y-27525146D01*
X35840079Y-27516595D01*
X35845750Y-27512789D01*
X35831938Y-27509113D01*
X35799982Y-27501459D01*
X35752410Y-27490405D01*
X35691748Y-27476530D01*
X35620521Y-27460413D01*
X35541258Y-27442633D01*
X35480625Y-27429125D01*
X35131375Y-27351542D01*
X35128450Y-27196749D01*
X35125526Y-27041956D01*
X35125526Y-25791584D01*
X34925000Y-25791584D01*
X34925000Y-33401000D01*
X36449000Y-33401000D01*
G04 #@! TO.C,G12*
G36*
X37084000Y-58430583D02*
G01*
X37084000Y-54102000D01*
X35771666Y-54102000D01*
X35771666Y-54305950D01*
X36882916Y-54709998D01*
X36882916Y-55039167D01*
X36633214Y-55129958D01*
X36633214Y-55531990D01*
X36688208Y-55533046D01*
X36689705Y-55533079D01*
X36824578Y-55536041D01*
X36848124Y-55602146D01*
X36873504Y-55683616D01*
X36890393Y-55764319D01*
X36899925Y-55851408D01*
X36903220Y-55949744D01*
X36902517Y-56022460D01*
X36899007Y-56080406D01*
X36892126Y-56129857D01*
X36883568Y-56168492D01*
X36850840Y-56266111D01*
X36807077Y-56345770D01*
X36752059Y-56407707D01*
X36685568Y-56452156D01*
X36607383Y-56479352D01*
X36591222Y-56482582D01*
X36519882Y-56487802D01*
X36449653Y-56479416D01*
X36388694Y-56458429D01*
X36386718Y-56457421D01*
X36349107Y-56429946D01*
X36310145Y-56388008D01*
X36274480Y-56337444D01*
X36246760Y-56284091D01*
X36244725Y-56279132D01*
X36232461Y-56243735D01*
X36217672Y-56193818D01*
X36202087Y-56135595D01*
X36187440Y-56075282D01*
X36185266Y-56065704D01*
X36168305Y-55993353D01*
X36153502Y-55939233D01*
X36139494Y-55900701D01*
X36124921Y-55875114D01*
X36108420Y-55859832D01*
X36088630Y-55852212D01*
X36074212Y-55850185D01*
X36032024Y-55855098D01*
X35999684Y-55877884D01*
X35977025Y-55918843D01*
X35963877Y-55978276D01*
X35960059Y-56054898D01*
X35968499Y-56143126D01*
X35990929Y-56233349D01*
X36024885Y-56317051D01*
X36047550Y-56357176D01*
X36067604Y-56389712D01*
X36077824Y-56412498D01*
X36076145Y-56427271D01*
X36060499Y-56435764D01*
X36028821Y-56439714D01*
X35979045Y-56440856D01*
X35947833Y-56440916D01*
X35817083Y-56440916D01*
X35794866Y-56364187D01*
X35773249Y-56281223D01*
X35771109Y-56269413D01*
X35771109Y-56580039D01*
X35885158Y-56610941D01*
X35920270Y-56620425D01*
X35972966Y-56634620D01*
X36040387Y-56652756D01*
X36119672Y-56674066D01*
X36207961Y-56697779D01*
X36302393Y-56723129D01*
X36400108Y-56749345D01*
X36441320Y-56760398D01*
X36883433Y-56878953D01*
X36880529Y-57042525D01*
X36877625Y-57206096D01*
X36536344Y-57297110D01*
X36455084Y-57318934D01*
X36380744Y-57339193D01*
X36315696Y-57357217D01*
X36262316Y-57372337D01*
X36222975Y-57383883D01*
X36200046Y-57391186D01*
X36195032Y-57393427D01*
X36204846Y-57397377D01*
X36232735Y-57406178D01*
X36276341Y-57419147D01*
X36333308Y-57435601D01*
X36401279Y-57454857D01*
X36477898Y-57476233D01*
X36538958Y-57493064D01*
X36882916Y-57587399D01*
X36882916Y-57910358D01*
X36848520Y-57921284D01*
X36831480Y-57926205D01*
X36797052Y-57935743D01*
X36747566Y-57949275D01*
X36685352Y-57966174D01*
X36612740Y-57985816D01*
X36532060Y-58007578D01*
X36445643Y-58030834D01*
X36355817Y-58054960D01*
X36264914Y-58079331D01*
X36175263Y-58103323D01*
X36089195Y-58126311D01*
X36009039Y-58147671D01*
X35937125Y-58166778D01*
X35875784Y-58183007D01*
X35827345Y-58195735D01*
X35794139Y-58204336D01*
X35778496Y-58208185D01*
X35777623Y-58208333D01*
X35775478Y-58198383D01*
X35773675Y-58171062D01*
X35772369Y-58130168D01*
X35771714Y-58079494D01*
X35771666Y-58060879D01*
X35771922Y-58001775D01*
X35772957Y-57960502D01*
X35775175Y-57933730D01*
X35778980Y-57918127D01*
X35784773Y-57910362D01*
X35790187Y-57907818D01*
X35804651Y-57904142D01*
X35837170Y-57896292D01*
X35885180Y-57884873D01*
X35946118Y-57870493D01*
X36017418Y-57853755D01*
X36096517Y-57835266D01*
X36152666Y-57822185D01*
X36235071Y-57802992D01*
X36310972Y-57785273D01*
X36377889Y-57769611D01*
X36433341Y-57756587D01*
X36474848Y-57746785D01*
X36499929Y-57740785D01*
X36506362Y-57739167D01*
X36498750Y-57736001D01*
X36472804Y-57728301D01*
X36430728Y-57716659D01*
X36374726Y-57701664D01*
X36307001Y-57683906D01*
X36229758Y-57663974D01*
X36145199Y-57642460D01*
X36143605Y-57642057D01*
X35771111Y-57547940D01*
X35774034Y-57399621D01*
X35776958Y-57251303D01*
X36142083Y-57154127D01*
X36225456Y-57131662D01*
X36301273Y-57110700D01*
X36367367Y-57091880D01*
X36421574Y-57075843D01*
X36461728Y-57063229D01*
X36485662Y-57054678D01*
X36491333Y-57050871D01*
X36477521Y-57047196D01*
X36445566Y-57039542D01*
X36397993Y-57028488D01*
X36337331Y-57014613D01*
X36266105Y-56998496D01*
X36186842Y-56980715D01*
X36126208Y-56967208D01*
X35776958Y-56889625D01*
X35774033Y-56734832D01*
X35771109Y-56580039D01*
X35771109Y-56269413D01*
X35759564Y-56205698D01*
X35752482Y-56128002D01*
X35750656Y-56044743D01*
X35757309Y-55927422D01*
X35777193Y-55825829D01*
X35810696Y-55738870D01*
X35858205Y-55665446D01*
X35900809Y-55620791D01*
X35965704Y-55576037D01*
X36038513Y-55549461D01*
X36115568Y-55541524D01*
X36193202Y-55552686D01*
X36254604Y-55576354D01*
X36299530Y-55604119D01*
X36337823Y-55639603D01*
X36370758Y-55685202D01*
X36399613Y-55743312D01*
X36425662Y-55816330D01*
X36450183Y-55906651D01*
X36464933Y-55971255D01*
X36476394Y-56021594D01*
X36487583Y-56066102D01*
X36497140Y-56099624D01*
X36503184Y-56116072D01*
X36533262Y-56158911D01*
X36567450Y-56182137D01*
X36603020Y-56185727D01*
X36637245Y-56169660D01*
X36667397Y-56133912D01*
X36676124Y-56117510D01*
X36686452Y-56081830D01*
X36692416Y-56031583D01*
X36693995Y-55972918D01*
X36691164Y-55911984D01*
X36683902Y-55854932D01*
X36677207Y-55824364D01*
X36659835Y-55772399D01*
X36634729Y-55713038D01*
X36606033Y-55655218D01*
X36577889Y-55607875D01*
X36574659Y-55603199D01*
X36560496Y-55576338D01*
X36554833Y-55552612D01*
X36555690Y-55543384D01*
X36560538Y-55537203D01*
X36572797Y-55533574D01*
X36595883Y-55532001D01*
X36633214Y-55531990D01*
X36633214Y-55129958D01*
X35771666Y-55443215D01*
X35771666Y-55141660D01*
X36012437Y-55059139D01*
X36090541Y-55032330D01*
X36171709Y-55004400D01*
X36250586Y-54977197D01*
X36321817Y-54952568D01*
X36380045Y-54932360D01*
X36394710Y-54927251D01*
X36536212Y-54877884D01*
X36315335Y-54801857D01*
X36237396Y-54775043D01*
X36153755Y-54746290D01*
X36070845Y-54717807D01*
X35995101Y-54691805D01*
X35933151Y-54670561D01*
X35771845Y-54615291D01*
X35771756Y-54460621D01*
X35771666Y-54305950D01*
X35771666Y-54102000D01*
X35560000Y-54102000D01*
X35560000Y-58430583D01*
X37084000Y-58430583D01*
G37*
X37084000Y-58430583D02*
X37084000Y-54102000D01*
X35771666Y-54102000D01*
X35771666Y-54305950D01*
X36882916Y-54709998D01*
X36882916Y-55039167D01*
X36633214Y-55129958D01*
X36633214Y-55531990D01*
X36688208Y-55533046D01*
X36689705Y-55533079D01*
X36824578Y-55536041D01*
X36848124Y-55602146D01*
X36873504Y-55683616D01*
X36890393Y-55764319D01*
X36899925Y-55851408D01*
X36903220Y-55949744D01*
X36902517Y-56022460D01*
X36899007Y-56080406D01*
X36892126Y-56129857D01*
X36883568Y-56168492D01*
X36850840Y-56266111D01*
X36807077Y-56345770D01*
X36752059Y-56407707D01*
X36685568Y-56452156D01*
X36607383Y-56479352D01*
X36591222Y-56482582D01*
X36519882Y-56487802D01*
X36449653Y-56479416D01*
X36388694Y-56458429D01*
X36386718Y-56457421D01*
X36349107Y-56429946D01*
X36310145Y-56388008D01*
X36274480Y-56337444D01*
X36246760Y-56284091D01*
X36244725Y-56279132D01*
X36232461Y-56243735D01*
X36217672Y-56193818D01*
X36202087Y-56135595D01*
X36187440Y-56075282D01*
X36185266Y-56065704D01*
X36168305Y-55993353D01*
X36153502Y-55939233D01*
X36139494Y-55900701D01*
X36124921Y-55875114D01*
X36108420Y-55859832D01*
X36088630Y-55852212D01*
X36074212Y-55850185D01*
X36032024Y-55855098D01*
X35999684Y-55877884D01*
X35977025Y-55918843D01*
X35963877Y-55978276D01*
X35960059Y-56054898D01*
X35968499Y-56143126D01*
X35990929Y-56233349D01*
X36024885Y-56317051D01*
X36047550Y-56357176D01*
X36067604Y-56389712D01*
X36077824Y-56412498D01*
X36076145Y-56427271D01*
X36060499Y-56435764D01*
X36028821Y-56439714D01*
X35979045Y-56440856D01*
X35947833Y-56440916D01*
X35817083Y-56440916D01*
X35794866Y-56364187D01*
X35773249Y-56281223D01*
X35771109Y-56269413D01*
X35771109Y-56580039D01*
X35885158Y-56610941D01*
X35920270Y-56620425D01*
X35972966Y-56634620D01*
X36040387Y-56652756D01*
X36119672Y-56674066D01*
X36207961Y-56697779D01*
X36302393Y-56723129D01*
X36400108Y-56749345D01*
X36441320Y-56760398D01*
X36883433Y-56878953D01*
X36880529Y-57042525D01*
X36877625Y-57206096D01*
X36536344Y-57297110D01*
X36455084Y-57318934D01*
X36380744Y-57339193D01*
X36315696Y-57357217D01*
X36262316Y-57372337D01*
X36222975Y-57383883D01*
X36200046Y-57391186D01*
X36195032Y-57393427D01*
X36204846Y-57397377D01*
X36232735Y-57406178D01*
X36276341Y-57419147D01*
X36333308Y-57435601D01*
X36401279Y-57454857D01*
X36477898Y-57476233D01*
X36538958Y-57493064D01*
X36882916Y-57587399D01*
X36882916Y-57910358D01*
X36848520Y-57921284D01*
X36831480Y-57926205D01*
X36797052Y-57935743D01*
X36747566Y-57949275D01*
X36685352Y-57966174D01*
X36612740Y-57985816D01*
X36532060Y-58007578D01*
X36445643Y-58030834D01*
X36355817Y-58054960D01*
X36264914Y-58079331D01*
X36175263Y-58103323D01*
X36089195Y-58126311D01*
X36009039Y-58147671D01*
X35937125Y-58166778D01*
X35875784Y-58183007D01*
X35827345Y-58195735D01*
X35794139Y-58204336D01*
X35778496Y-58208185D01*
X35777623Y-58208333D01*
X35775478Y-58198383D01*
X35773675Y-58171062D01*
X35772369Y-58130168D01*
X35771714Y-58079494D01*
X35771666Y-58060879D01*
X35771922Y-58001775D01*
X35772957Y-57960502D01*
X35775175Y-57933730D01*
X35778980Y-57918127D01*
X35784773Y-57910362D01*
X35790187Y-57907818D01*
X35804651Y-57904142D01*
X35837170Y-57896292D01*
X35885180Y-57884873D01*
X35946118Y-57870493D01*
X36017418Y-57853755D01*
X36096517Y-57835266D01*
X36152666Y-57822185D01*
X36235071Y-57802992D01*
X36310972Y-57785273D01*
X36377889Y-57769611D01*
X36433341Y-57756587D01*
X36474848Y-57746785D01*
X36499929Y-57740785D01*
X36506362Y-57739167D01*
X36498750Y-57736001D01*
X36472804Y-57728301D01*
X36430728Y-57716659D01*
X36374726Y-57701664D01*
X36307001Y-57683906D01*
X36229758Y-57663974D01*
X36145199Y-57642460D01*
X36143605Y-57642057D01*
X35771111Y-57547940D01*
X35774034Y-57399621D01*
X35776958Y-57251303D01*
X36142083Y-57154127D01*
X36225456Y-57131662D01*
X36301273Y-57110700D01*
X36367367Y-57091880D01*
X36421574Y-57075843D01*
X36461728Y-57063229D01*
X36485662Y-57054678D01*
X36491333Y-57050871D01*
X36477521Y-57047196D01*
X36445566Y-57039542D01*
X36397993Y-57028488D01*
X36337331Y-57014613D01*
X36266105Y-56998496D01*
X36186842Y-56980715D01*
X36126208Y-56967208D01*
X35776958Y-56889625D01*
X35774033Y-56734832D01*
X35771109Y-56580039D01*
X35771109Y-56269413D01*
X35759564Y-56205698D01*
X35752482Y-56128002D01*
X35750656Y-56044743D01*
X35757309Y-55927422D01*
X35777193Y-55825829D01*
X35810696Y-55738870D01*
X35858205Y-55665446D01*
X35900809Y-55620791D01*
X35965704Y-55576037D01*
X36038513Y-55549461D01*
X36115568Y-55541524D01*
X36193202Y-55552686D01*
X36254604Y-55576354D01*
X36299530Y-55604119D01*
X36337823Y-55639603D01*
X36370758Y-55685202D01*
X36399613Y-55743312D01*
X36425662Y-55816330D01*
X36450183Y-55906651D01*
X36464933Y-55971255D01*
X36476394Y-56021594D01*
X36487583Y-56066102D01*
X36497140Y-56099624D01*
X36503184Y-56116072D01*
X36533262Y-56158911D01*
X36567450Y-56182137D01*
X36603020Y-56185727D01*
X36637245Y-56169660D01*
X36667397Y-56133912D01*
X36676124Y-56117510D01*
X36686452Y-56081830D01*
X36692416Y-56031583D01*
X36693995Y-55972918D01*
X36691164Y-55911984D01*
X36683902Y-55854932D01*
X36677207Y-55824364D01*
X36659835Y-55772399D01*
X36634729Y-55713038D01*
X36606033Y-55655218D01*
X36577889Y-55607875D01*
X36574659Y-55603199D01*
X36560496Y-55576338D01*
X36554833Y-55552612D01*
X36555690Y-55543384D01*
X36560538Y-55537203D01*
X36572797Y-55533574D01*
X36595883Y-55532001D01*
X36633214Y-55531990D01*
X36633214Y-55129958D01*
X35771666Y-55443215D01*
X35771666Y-55141660D01*
X36012437Y-55059139D01*
X36090541Y-55032330D01*
X36171709Y-55004400D01*
X36250586Y-54977197D01*
X36321817Y-54952568D01*
X36380045Y-54932360D01*
X36394710Y-54927251D01*
X36536212Y-54877884D01*
X36315335Y-54801857D01*
X36237396Y-54775043D01*
X36153755Y-54746290D01*
X36070845Y-54717807D01*
X35995101Y-54691805D01*
X35933151Y-54670561D01*
X35771845Y-54615291D01*
X35771756Y-54460621D01*
X35771666Y-54305950D01*
X35771666Y-54102000D01*
X35560000Y-54102000D01*
X35560000Y-58430583D01*
X37084000Y-58430583D01*
G04 #@! TO.C,G11*
G36*
X36075679Y-44825929D02*
G01*
X36098341Y-44835851D01*
X36135585Y-44850146D01*
X36184628Y-44867751D01*
X36242688Y-44887608D01*
X36252943Y-44891028D01*
X36449000Y-44956171D01*
X36449000Y-44694965D01*
X36266437Y-44755979D01*
X36207233Y-44775762D01*
X36154525Y-44793368D01*
X36111782Y-44807639D01*
X36082473Y-44817416D01*
X36070380Y-44821439D01*
X36075679Y-44825929D01*
G37*
X36075679Y-44825929D02*
X36098341Y-44835851D01*
X36135585Y-44850146D01*
X36184628Y-44867751D01*
X36242688Y-44887608D01*
X36252943Y-44891028D01*
X36449000Y-44956171D01*
X36449000Y-44694965D01*
X36266437Y-44755979D01*
X36207233Y-44775762D01*
X36154525Y-44793368D01*
X36111782Y-44807639D01*
X36082473Y-44817416D01*
X36070380Y-44821439D01*
X36075679Y-44825929D01*
G36*
X35965969Y-43616562D02*
G01*
X35970779Y-43673610D01*
X35977102Y-43713455D01*
X35985713Y-43740051D01*
X35992453Y-43751500D01*
X36026236Y-43781365D01*
X36069106Y-43792303D01*
X36106871Y-43787834D01*
X36136542Y-43775998D01*
X36158267Y-43755505D01*
X36173514Y-43723251D01*
X36183753Y-43676131D01*
X36190437Y-43611270D01*
X36197900Y-43508083D01*
X35958984Y-43508083D01*
X35965969Y-43616562D01*
G37*
X35965969Y-43616562D02*
X35970779Y-43673610D01*
X35977102Y-43713455D01*
X35985713Y-43740051D01*
X35992453Y-43751500D01*
X36026236Y-43781365D01*
X36069106Y-43792303D01*
X36106871Y-43787834D01*
X36136542Y-43775998D01*
X36158267Y-43755505D01*
X36173514Y-43723251D01*
X36183753Y-43676131D01*
X36190437Y-43611270D01*
X36197900Y-43508083D01*
X35958984Y-43508083D01*
X35965969Y-43616562D01*
G36*
X36389083Y-43635228D02*
G01*
X36394641Y-43710532D01*
X36403129Y-43767216D01*
X36416051Y-43807779D01*
X36434914Y-43834720D01*
X36461221Y-43850539D01*
X36496479Y-43857733D01*
X36523829Y-43858961D01*
X36569428Y-43855028D01*
X36604662Y-43841047D01*
X36630834Y-43814931D01*
X36649251Y-43774594D01*
X36661217Y-43717950D01*
X36668037Y-43642914D01*
X36668825Y-43627145D01*
X36674202Y-43508083D01*
X36382247Y-43508083D01*
X36389083Y-43635228D01*
G37*
X36389083Y-43635228D02*
X36394641Y-43710532D01*
X36403129Y-43767216D01*
X36416051Y-43807779D01*
X36434914Y-43834720D01*
X36461221Y-43850539D01*
X36496479Y-43857733D01*
X36523829Y-43858961D01*
X36569428Y-43855028D01*
X36604662Y-43841047D01*
X36630834Y-43814931D01*
X36649251Y-43774594D01*
X36661217Y-43717950D01*
X36668037Y-43642914D01*
X36668825Y-43627145D01*
X36674202Y-43508083D01*
X36382247Y-43508083D01*
X36389083Y-43635228D01*
G36*
X37084000Y-47699083D02*
G01*
X37084000Y-42989500D01*
X36872333Y-42989500D01*
X36872333Y-43211750D01*
X36872333Y-44251308D01*
X36872333Y-44551667D01*
X36650083Y-44623499D01*
X36650203Y-45026791D01*
X36758622Y-45064635D01*
X36867041Y-45102480D01*
X36869978Y-45252490D01*
X36870461Y-45306081D01*
X36869792Y-45351210D01*
X36868109Y-45384117D01*
X36865552Y-45401041D01*
X36864395Y-45402500D01*
X36853550Y-45398974D01*
X36825068Y-45388939D01*
X36781174Y-45373209D01*
X36724088Y-45352597D01*
X36656036Y-45327917D01*
X36579240Y-45299983D01*
X36495922Y-45269607D01*
X36408307Y-45237604D01*
X36318617Y-45204786D01*
X36229076Y-45171969D01*
X36141906Y-45139965D01*
X36059331Y-45109587D01*
X35983573Y-45081650D01*
X35916857Y-45056966D01*
X35861404Y-45036351D01*
X35819439Y-45020616D01*
X35793184Y-45010576D01*
X35789931Y-45009290D01*
X35761083Y-44997758D01*
X35761083Y-45444833D01*
X35972750Y-45444833D01*
X35972750Y-45794083D01*
X36872333Y-45794083D01*
X36872333Y-46090416D01*
X35972750Y-46090416D01*
X35972750Y-46439666D01*
X35761083Y-46439666D01*
X35761083Y-46482000D01*
X35972750Y-46482000D01*
X35972750Y-46831250D01*
X36872333Y-46831250D01*
X36872333Y-47127583D01*
X35972750Y-47127583D01*
X35972750Y-47476833D01*
X35761083Y-47476833D01*
X35761083Y-46482000D01*
X35761083Y-46439666D01*
X35761083Y-45444833D01*
X35761083Y-44997758D01*
X35760572Y-44997553D01*
X35763473Y-44828271D01*
X35766375Y-44658989D01*
X36136791Y-44522453D01*
X36230435Y-44487935D01*
X36326248Y-44452617D01*
X36420363Y-44417925D01*
X36508912Y-44385284D01*
X36588028Y-44356119D01*
X36653844Y-44331857D01*
X36689770Y-44318612D01*
X36872333Y-44251308D01*
X36872333Y-43211750D01*
X36872074Y-43521312D01*
X36871634Y-43604810D01*
X36870518Y-43682678D01*
X36868823Y-43751863D01*
X36866643Y-43809313D01*
X36864074Y-43851977D01*
X36861212Y-43876800D01*
X36860944Y-43878052D01*
X36834970Y-43954432D01*
X36795152Y-44024871D01*
X36744869Y-44084657D01*
X36687503Y-44129075D01*
X36676541Y-44135150D01*
X36630202Y-44151555D01*
X36572357Y-44161133D01*
X36511388Y-44163406D01*
X36455675Y-44157898D01*
X36425010Y-44149442D01*
X36362091Y-44113809D01*
X36311467Y-44062309D01*
X36275847Y-43997944D01*
X36268166Y-43975484D01*
X36254603Y-43929593D01*
X36235789Y-43966265D01*
X36196630Y-44020443D01*
X36143346Y-44059983D01*
X36078243Y-44083591D01*
X36014897Y-44090166D01*
X35943671Y-44081348D01*
X35883844Y-44054818D01*
X35835285Y-44010462D01*
X35797860Y-43948166D01*
X35775435Y-43883791D01*
X35770793Y-43858812D01*
X35767152Y-43821460D01*
X35764443Y-43769951D01*
X35762596Y-43702502D01*
X35761541Y-43617330D01*
X35761208Y-43521312D01*
X35761083Y-43211750D01*
X36872333Y-43211750D01*
X36872333Y-42989500D01*
X35560000Y-42989500D01*
X35560000Y-47699083D01*
X37084000Y-47699083D01*
G37*
X37084000Y-47699083D02*
X37084000Y-42989500D01*
X36872333Y-42989500D01*
X36872333Y-43211750D01*
X36872333Y-44251308D01*
X36872333Y-44551667D01*
X36650083Y-44623499D01*
X36650203Y-45026791D01*
X36758622Y-45064635D01*
X36867041Y-45102480D01*
X36869978Y-45252490D01*
X36870461Y-45306081D01*
X36869792Y-45351210D01*
X36868109Y-45384117D01*
X36865552Y-45401041D01*
X36864395Y-45402500D01*
X36853550Y-45398974D01*
X36825068Y-45388939D01*
X36781174Y-45373209D01*
X36724088Y-45352597D01*
X36656036Y-45327917D01*
X36579240Y-45299983D01*
X36495922Y-45269607D01*
X36408307Y-45237604D01*
X36318617Y-45204786D01*
X36229076Y-45171969D01*
X36141906Y-45139965D01*
X36059331Y-45109587D01*
X35983573Y-45081650D01*
X35916857Y-45056966D01*
X35861404Y-45036351D01*
X35819439Y-45020616D01*
X35793184Y-45010576D01*
X35789931Y-45009290D01*
X35761083Y-44997758D01*
X35761083Y-45444833D01*
X35972750Y-45444833D01*
X35972750Y-45794083D01*
X36872333Y-45794083D01*
X36872333Y-46090416D01*
X35972750Y-46090416D01*
X35972750Y-46439666D01*
X35761083Y-46439666D01*
X35761083Y-46482000D01*
X35972750Y-46482000D01*
X35972750Y-46831250D01*
X36872333Y-46831250D01*
X36872333Y-47127583D01*
X35972750Y-47127583D01*
X35972750Y-47476833D01*
X35761083Y-47476833D01*
X35761083Y-46482000D01*
X35761083Y-46439666D01*
X35761083Y-45444833D01*
X35761083Y-44997758D01*
X35760572Y-44997553D01*
X35763473Y-44828271D01*
X35766375Y-44658989D01*
X36136791Y-44522453D01*
X36230435Y-44487935D01*
X36326248Y-44452617D01*
X36420363Y-44417925D01*
X36508912Y-44385284D01*
X36588028Y-44356119D01*
X36653844Y-44331857D01*
X36689770Y-44318612D01*
X36872333Y-44251308D01*
X36872333Y-43211750D01*
X36872074Y-43521312D01*
X36871634Y-43604810D01*
X36870518Y-43682678D01*
X36868823Y-43751863D01*
X36866643Y-43809313D01*
X36864074Y-43851977D01*
X36861212Y-43876800D01*
X36860944Y-43878052D01*
X36834970Y-43954432D01*
X36795152Y-44024871D01*
X36744869Y-44084657D01*
X36687503Y-44129075D01*
X36676541Y-44135150D01*
X36630202Y-44151555D01*
X36572357Y-44161133D01*
X36511388Y-44163406D01*
X36455675Y-44157898D01*
X36425010Y-44149442D01*
X36362091Y-44113809D01*
X36311467Y-44062309D01*
X36275847Y-43997944D01*
X36268166Y-43975484D01*
X36254603Y-43929593D01*
X36235789Y-43966265D01*
X36196630Y-44020443D01*
X36143346Y-44059983D01*
X36078243Y-44083591D01*
X36014897Y-44090166D01*
X35943671Y-44081348D01*
X35883844Y-44054818D01*
X35835285Y-44010462D01*
X35797860Y-43948166D01*
X35775435Y-43883791D01*
X35770793Y-43858812D01*
X35767152Y-43821460D01*
X35764443Y-43769951D01*
X35762596Y-43702502D01*
X35761541Y-43617330D01*
X35761208Y-43521312D01*
X35761083Y-43211750D01*
X36872333Y-43211750D01*
X36872333Y-42989500D01*
X35560000Y-42989500D01*
X35560000Y-47699083D01*
X37084000Y-47699083D01*
D11*
G04 #@! TO.C,U2*
X65350000Y-51430000D02*
X65350000Y-52880000D01*
X61750000Y-46180000D02*
X65350000Y-46180000D01*
X65350000Y-52880000D02*
X59575000Y-52880000D01*
X65350000Y-47630000D02*
X65350000Y-46180000D01*
G04 #@! TO.C,Q1*
X41920000Y-35515000D02*
X41920000Y-41090000D01*
X36820000Y-39415000D02*
X36820000Y-35515000D01*
G04 #@! TO.C,BZ1*
X87010000Y-38090000D02*
G75*
G03*
X87010000Y-38090000I-7000000J0D01*
G01*
G04 #@! TO.C,U1*
X41265000Y-47580000D02*
X41265000Y-51480000D01*
X46365000Y-47580000D02*
X46365000Y-52580000D01*
G04 #@! TO.C,SW1*
X50010000Y-32610000D02*
X50010000Y-25810000D01*
X50010000Y-25810000D02*
X37110000Y-25810000D01*
X37110000Y-25810000D02*
X37110000Y-32610000D01*
X37110000Y-32610000D02*
X50010000Y-32610000D01*
G04 #@! TO.C,R5*
X41365000Y-56885000D02*
X39915000Y-56885000D01*
X41365000Y-58685000D02*
X39915000Y-58685000D01*
G04 #@! TO.C,R4*
X46445000Y-56885000D02*
X44995000Y-56885000D01*
X46445000Y-58685000D02*
X44995000Y-58685000D01*
G04 #@! TO.C,R3*
X51700000Y-53250000D02*
X51700000Y-54700000D01*
X49900000Y-53250000D02*
X49900000Y-54700000D01*
G04 #@! TO.C,L1*
X51375000Y-33965000D02*
X51375000Y-36090000D01*
X43875000Y-33965000D02*
X51375000Y-33965000D01*
X43875000Y-36090000D02*
X43875000Y-33965000D01*
X51375000Y-40965000D02*
X51375000Y-38840000D01*
X43875000Y-40965000D02*
X51375000Y-40965000D01*
X43875000Y-38840000D02*
X43875000Y-40965000D01*
G04 #@! TO.C,J9*
X96420000Y-57250000D02*
X106780000Y-57250000D01*
X96420000Y-54510000D02*
X106780000Y-54510000D01*
X106780000Y-54510000D02*
X106780000Y-57250000D01*
X96420000Y-54510000D02*
X96420000Y-57250000D01*
G04 #@! TO.C,J8*
X83720000Y-57250000D02*
X94080000Y-57250000D01*
X83720000Y-54510000D02*
X94080000Y-54510000D01*
X94080000Y-54510000D02*
X94080000Y-57250000D01*
X83720000Y-54510000D02*
X83720000Y-57250000D01*
G04 #@! TO.C,J7*
X55780000Y-57250000D02*
X76300000Y-57250000D01*
X55780000Y-54510000D02*
X76300000Y-54510000D01*
X76300000Y-54510000D02*
X76300000Y-57250000D01*
X55780000Y-54510000D02*
X55780000Y-57250000D01*
G04 #@! TO.C,J6*
X55780000Y-28675000D02*
X66140000Y-28675000D01*
X55780000Y-25935000D02*
X66140000Y-25935000D01*
X66140000Y-25935000D02*
X66140000Y-28675000D01*
X55780000Y-25935000D02*
X55780000Y-28675000D01*
G04 #@! TO.C,J5*
X109120000Y-25935000D02*
X109120000Y-28675000D01*
X116940000Y-25935000D02*
X116940000Y-28675000D01*
X109120000Y-25935000D02*
X116940000Y-25935000D01*
X109120000Y-28675000D02*
X116940000Y-28675000D01*
G04 #@! TO.C,J4*
X91340000Y-25935000D02*
X91340000Y-28675000D01*
X106780000Y-25935000D02*
X106780000Y-28675000D01*
X91340000Y-25935000D02*
X106780000Y-25935000D01*
X91340000Y-28675000D02*
X106780000Y-28675000D01*
G04 #@! TO.C,J2*
X25555000Y-50455000D02*
X25555000Y-58455000D01*
X34955000Y-50455000D02*
X34955000Y-58455000D01*
X25555000Y-50455000D02*
X34955000Y-50455000D01*
X25555000Y-58455000D02*
X34955000Y-58455000D01*
G04 #@! TO.C,J1*
X25555000Y-39660000D02*
X25555000Y-47660000D01*
X34955000Y-39660000D02*
X34955000Y-47660000D01*
X25555000Y-39660000D02*
X34955000Y-39660000D01*
X25555000Y-47660000D02*
X34955000Y-47660000D01*
G04 #@! TO.C,C14*
X110265000Y-37875000D02*
X112590000Y-37875000D01*
X110265000Y-43625000D02*
X110265000Y-37875000D01*
X111315000Y-44675000D02*
X110265000Y-43625000D01*
X112590000Y-44675000D02*
X111315000Y-44675000D01*
X117065000Y-43625000D02*
X116015000Y-44675000D01*
X117065000Y-37875000D02*
X117065000Y-43625000D01*
X114740000Y-37875000D02*
X117065000Y-37875000D01*
X114740000Y-44675000D02*
X116015000Y-44675000D01*
G04 #@! TO.C,C5*
X72185000Y-45605000D02*
X72185000Y-52530000D01*
X68785000Y-45605000D02*
X68785000Y-52530000D01*
X68785000Y-45605000D02*
X72185000Y-45605000D01*
G04 #@! TO.C,C4*
X59575000Y-42115000D02*
X66500000Y-42115000D01*
X59575000Y-45515000D02*
X66500000Y-45515000D01*
X59575000Y-45515000D02*
X59575000Y-42115000D01*
G04 #@! TO.C,C3*
X49955000Y-45165000D02*
X49105000Y-45165000D01*
X49955000Y-42465000D02*
X49105000Y-42465000D01*
G04 #@! TO.C,C2*
X46340000Y-54345000D02*
X47640000Y-54345000D01*
X46340000Y-56145000D02*
X47640000Y-56145000D01*
G04 #@! TO.C,C1*
X43800000Y-42915000D02*
X45100000Y-42915000D01*
X43800000Y-44715000D02*
X45100000Y-44715000D01*
G04 #@! TO.C,U2*
D12*
X58927904Y-51268380D02*
X58927904Y-52077904D01*
X58880285Y-52173142D01*
X58832666Y-52220761D01*
X58737428Y-52268380D01*
X58546952Y-52268380D01*
X58451714Y-52220761D01*
X58404095Y-52173142D01*
X58356476Y-52077904D01*
X58356476Y-51268380D01*
X57927904Y-51363619D02*
X57880285Y-51316000D01*
X57785047Y-51268380D01*
X57546952Y-51268380D01*
X57451714Y-51316000D01*
X57404095Y-51363619D01*
X57356476Y-51458857D01*
X57356476Y-51554095D01*
X57404095Y-51696952D01*
X57975523Y-52268380D01*
X57356476Y-52268380D01*
G04 #@! TO.C,Q1*
X36361619Y-37369761D02*
X36314000Y-37274523D01*
X36218761Y-37179285D01*
X36075904Y-37036428D01*
X36028285Y-36941190D01*
X36028285Y-36845952D01*
X36266380Y-36893571D02*
X36218761Y-36798333D01*
X36123523Y-36703095D01*
X35933047Y-36655476D01*
X35599714Y-36655476D01*
X35409238Y-36703095D01*
X35314000Y-36798333D01*
X35266380Y-36893571D01*
X35266380Y-37084047D01*
X35314000Y-37179285D01*
X35409238Y-37274523D01*
X35599714Y-37322142D01*
X35933047Y-37322142D01*
X36123523Y-37274523D01*
X36218761Y-37179285D01*
X36266380Y-37084047D01*
X36266380Y-36893571D01*
X36266380Y-38274523D02*
X36266380Y-37703095D01*
X36266380Y-37988809D02*
X35266380Y-37988809D01*
X35409238Y-37893571D01*
X35504476Y-37798333D01*
X35552095Y-37703095D01*
G04 #@! TO.C,BZ1*
X72013571Y-37209047D02*
X72061190Y-37351904D01*
X72108809Y-37399523D01*
X72204047Y-37447142D01*
X72346904Y-37447142D01*
X72442142Y-37399523D01*
X72489761Y-37351904D01*
X72537380Y-37256666D01*
X72537380Y-36875714D01*
X71537380Y-36875714D01*
X71537380Y-37209047D01*
X71585000Y-37304285D01*
X71632619Y-37351904D01*
X71727857Y-37399523D01*
X71823095Y-37399523D01*
X71918333Y-37351904D01*
X71965952Y-37304285D01*
X72013571Y-37209047D01*
X72013571Y-36875714D01*
X71537380Y-37780476D02*
X71537380Y-38447142D01*
X72537380Y-37780476D01*
X72537380Y-38447142D01*
X72537380Y-39351904D02*
X72537380Y-38780476D01*
X72537380Y-39066190D02*
X71537380Y-39066190D01*
X71680238Y-38970952D01*
X71775476Y-38875714D01*
X71823095Y-38780476D01*
X77541428Y-33909047D02*
X77541428Y-34670952D01*
X77922380Y-34290000D02*
X77160476Y-34290000D01*
G04 #@! TO.C,U1*
X46742380Y-48768095D02*
X47551904Y-48768095D01*
X47647142Y-48815714D01*
X47694761Y-48863333D01*
X47742380Y-48958571D01*
X47742380Y-49149047D01*
X47694761Y-49244285D01*
X47647142Y-49291904D01*
X47551904Y-49339523D01*
X46742380Y-49339523D01*
X47742380Y-50339523D02*
X47742380Y-49768095D01*
X47742380Y-50053809D02*
X46742380Y-50053809D01*
X46885238Y-49958571D01*
X46980476Y-49863333D01*
X47028095Y-49768095D01*
G04 #@! TO.C,SW1*
X51339761Y-27876666D02*
X51387380Y-28019523D01*
X51387380Y-28257619D01*
X51339761Y-28352857D01*
X51292142Y-28400476D01*
X51196904Y-28448095D01*
X51101666Y-28448095D01*
X51006428Y-28400476D01*
X50958809Y-28352857D01*
X50911190Y-28257619D01*
X50863571Y-28067142D01*
X50815952Y-27971904D01*
X50768333Y-27924285D01*
X50673095Y-27876666D01*
X50577857Y-27876666D01*
X50482619Y-27924285D01*
X50435000Y-27971904D01*
X50387380Y-28067142D01*
X50387380Y-28305238D01*
X50435000Y-28448095D01*
X50387380Y-28781428D02*
X51387380Y-29019523D01*
X50673095Y-29210000D01*
X51387380Y-29400476D01*
X50387380Y-29638571D01*
X51387380Y-30543333D02*
X51387380Y-29971904D01*
X51387380Y-30257619D02*
X50387380Y-30257619D01*
X50530238Y-30162380D01*
X50625476Y-30067142D01*
X50673095Y-29971904D01*
G04 #@! TO.C,R5*
X40806666Y-60142380D02*
X41140000Y-59666190D01*
X41378095Y-60142380D02*
X41378095Y-59142380D01*
X40997142Y-59142380D01*
X40901904Y-59190000D01*
X40854285Y-59237619D01*
X40806666Y-59332857D01*
X40806666Y-59475714D01*
X40854285Y-59570952D01*
X40901904Y-59618571D01*
X40997142Y-59666190D01*
X41378095Y-59666190D01*
X39901904Y-59142380D02*
X40378095Y-59142380D01*
X40425714Y-59618571D01*
X40378095Y-59570952D01*
X40282857Y-59523333D01*
X40044761Y-59523333D01*
X39949523Y-59570952D01*
X39901904Y-59618571D01*
X39854285Y-59713809D01*
X39854285Y-59951904D01*
X39901904Y-60047142D01*
X39949523Y-60094761D01*
X40044761Y-60142380D01*
X40282857Y-60142380D01*
X40378095Y-60094761D01*
X40425714Y-60047142D01*
G04 #@! TO.C,R4*
X45886666Y-60142380D02*
X46220000Y-59666190D01*
X46458095Y-60142380D02*
X46458095Y-59142380D01*
X46077142Y-59142380D01*
X45981904Y-59190000D01*
X45934285Y-59237619D01*
X45886666Y-59332857D01*
X45886666Y-59475714D01*
X45934285Y-59570952D01*
X45981904Y-59618571D01*
X46077142Y-59666190D01*
X46458095Y-59666190D01*
X45029523Y-59475714D02*
X45029523Y-60142380D01*
X45267619Y-59094761D02*
X45505714Y-59809047D01*
X44886666Y-59809047D01*
G04 #@! TO.C,R3*
X50966666Y-57348380D02*
X51300000Y-56872190D01*
X51538095Y-57348380D02*
X51538095Y-56348380D01*
X51157142Y-56348380D01*
X51061904Y-56396000D01*
X51014285Y-56443619D01*
X50966666Y-56538857D01*
X50966666Y-56681714D01*
X51014285Y-56776952D01*
X51061904Y-56824571D01*
X51157142Y-56872190D01*
X51538095Y-56872190D01*
X50633333Y-56348380D02*
X50014285Y-56348380D01*
X50347619Y-56729333D01*
X50204761Y-56729333D01*
X50109523Y-56776952D01*
X50061904Y-56824571D01*
X50014285Y-56919809D01*
X50014285Y-57157904D01*
X50061904Y-57253142D01*
X50109523Y-57300761D01*
X50204761Y-57348380D01*
X50490476Y-57348380D01*
X50585714Y-57300761D01*
X50633333Y-57253142D01*
G04 #@! TO.C,L1*
X52871666Y-37917380D02*
X53347857Y-37917380D01*
X53347857Y-36917380D01*
X52014523Y-37917380D02*
X52585952Y-37917380D01*
X52300238Y-37917380D02*
X52300238Y-36917380D01*
X52395476Y-37060238D01*
X52490714Y-37155476D01*
X52585952Y-37203095D01*
G04 #@! TO.C,J9*
X94689680Y-55546666D02*
X95403966Y-55546666D01*
X95546823Y-55499047D01*
X95642061Y-55403809D01*
X95689680Y-55260952D01*
X95689680Y-55165714D01*
X95689680Y-56070476D02*
X95689680Y-56260952D01*
X95642061Y-56356190D01*
X95594442Y-56403809D01*
X95451585Y-56499047D01*
X95261109Y-56546666D01*
X94880157Y-56546666D01*
X94784919Y-56499047D01*
X94737300Y-56451428D01*
X94689680Y-56356190D01*
X94689680Y-56165714D01*
X94737300Y-56070476D01*
X94784919Y-56022857D01*
X94880157Y-55975238D01*
X95118252Y-55975238D01*
X95213490Y-56022857D01*
X95261109Y-56070476D01*
X95308728Y-56165714D01*
X95308728Y-56356190D01*
X95261109Y-56451428D01*
X95213490Y-56499047D01*
X95118252Y-56546666D01*
G04 #@! TO.C,J8*
X81989680Y-55546666D02*
X82703966Y-55546666D01*
X82846823Y-55499047D01*
X82942061Y-55403809D01*
X82989680Y-55260952D01*
X82989680Y-55165714D01*
X82418252Y-56165714D02*
X82370633Y-56070476D01*
X82323014Y-56022857D01*
X82227776Y-55975238D01*
X82180157Y-55975238D01*
X82084919Y-56022857D01*
X82037300Y-56070476D01*
X81989680Y-56165714D01*
X81989680Y-56356190D01*
X82037300Y-56451428D01*
X82084919Y-56499047D01*
X82180157Y-56546666D01*
X82227776Y-56546666D01*
X82323014Y-56499047D01*
X82370633Y-56451428D01*
X82418252Y-56356190D01*
X82418252Y-56165714D01*
X82465871Y-56070476D01*
X82513490Y-56022857D01*
X82608728Y-55975238D01*
X82799204Y-55975238D01*
X82894442Y-56022857D01*
X82942061Y-56070476D01*
X82989680Y-56165714D01*
X82989680Y-56356190D01*
X82942061Y-56451428D01*
X82894442Y-56499047D01*
X82799204Y-56546666D01*
X82608728Y-56546666D01*
X82513490Y-56499047D01*
X82465871Y-56451428D01*
X82418252Y-56356190D01*
G04 #@! TO.C,J7*
X54049680Y-55546666D02*
X54763966Y-55546666D01*
X54906823Y-55499047D01*
X55002061Y-55403809D01*
X55049680Y-55260952D01*
X55049680Y-55165714D01*
X54049680Y-55927619D02*
X54049680Y-56594285D01*
X55049680Y-56165714D01*
G04 #@! TO.C,J6*
X54049680Y-26971666D02*
X54763966Y-26971666D01*
X54906823Y-26924047D01*
X55002061Y-26828809D01*
X55049680Y-26685952D01*
X55049680Y-26590714D01*
X54049680Y-27876428D02*
X54049680Y-27685952D01*
X54097300Y-27590714D01*
X54144919Y-27543095D01*
X54287776Y-27447857D01*
X54478252Y-27400238D01*
X54859204Y-27400238D01*
X54954442Y-27447857D01*
X55002061Y-27495476D01*
X55049680Y-27590714D01*
X55049680Y-27781190D01*
X55002061Y-27876428D01*
X54954442Y-27924047D01*
X54859204Y-27971666D01*
X54621109Y-27971666D01*
X54525871Y-27924047D01*
X54478252Y-27876428D01*
X54430633Y-27781190D01*
X54430633Y-27590714D01*
X54478252Y-27495476D01*
X54525871Y-27447857D01*
X54621109Y-27400238D01*
G04 #@! TO.C,J5*
X107389680Y-26971666D02*
X108103966Y-26971666D01*
X108246823Y-26924047D01*
X108342061Y-26828809D01*
X108389680Y-26685952D01*
X108389680Y-26590714D01*
X107389680Y-27924047D02*
X107389680Y-27447857D01*
X107865871Y-27400238D01*
X107818252Y-27447857D01*
X107770633Y-27543095D01*
X107770633Y-27781190D01*
X107818252Y-27876428D01*
X107865871Y-27924047D01*
X107961109Y-27971666D01*
X108199204Y-27971666D01*
X108294442Y-27924047D01*
X108342061Y-27876428D01*
X108389680Y-27781190D01*
X108389680Y-27543095D01*
X108342061Y-27447857D01*
X108294442Y-27400238D01*
G04 #@! TO.C,J4*
X89609680Y-26971666D02*
X90323966Y-26971666D01*
X90466823Y-26924047D01*
X90562061Y-26828809D01*
X90609680Y-26685952D01*
X90609680Y-26590714D01*
X89943014Y-27876428D02*
X90609680Y-27876428D01*
X89562061Y-27638333D02*
X90276347Y-27400238D01*
X90276347Y-28019285D01*
G04 #@! TO.C,J2*
X27511333Y-48855380D02*
X27511333Y-49569666D01*
X27558952Y-49712523D01*
X27654190Y-49807761D01*
X27797047Y-49855380D01*
X27892285Y-49855380D01*
X27082761Y-48950619D02*
X27035142Y-48903000D01*
X26939904Y-48855380D01*
X26701809Y-48855380D01*
X26606571Y-48903000D01*
X26558952Y-48950619D01*
X26511333Y-49045857D01*
X26511333Y-49141095D01*
X26558952Y-49283952D01*
X27130380Y-49855380D01*
X26511333Y-49855380D01*
G04 #@! TO.C,J1*
X27511333Y-38060380D02*
X27511333Y-38774666D01*
X27558952Y-38917523D01*
X27654190Y-39012761D01*
X27797047Y-39060380D01*
X27892285Y-39060380D01*
X26511333Y-39060380D02*
X27082761Y-39060380D01*
X26797047Y-39060380D02*
X26797047Y-38060380D01*
X26892285Y-38203238D01*
X26987523Y-38298476D01*
X27082761Y-38346095D01*
G04 #@! TO.C,C14*
X109577142Y-40632142D02*
X109624761Y-40584523D01*
X109672380Y-40441666D01*
X109672380Y-40346428D01*
X109624761Y-40203571D01*
X109529523Y-40108333D01*
X109434285Y-40060714D01*
X109243809Y-40013095D01*
X109100952Y-40013095D01*
X108910476Y-40060714D01*
X108815238Y-40108333D01*
X108720000Y-40203571D01*
X108672380Y-40346428D01*
X108672380Y-40441666D01*
X108720000Y-40584523D01*
X108767619Y-40632142D01*
X109672380Y-41584523D02*
X109672380Y-41013095D01*
X109672380Y-41298809D02*
X108672380Y-41298809D01*
X108815238Y-41203571D01*
X108910476Y-41108333D01*
X108958095Y-41013095D01*
X109005714Y-42441666D02*
X109672380Y-42441666D01*
X108624761Y-42203571D02*
X109339047Y-41965476D01*
X109339047Y-42584523D01*
G04 #@! TO.C,C5*
X70651666Y-44807142D02*
X70699285Y-44854761D01*
X70842142Y-44902380D01*
X70937380Y-44902380D01*
X71080238Y-44854761D01*
X71175476Y-44759523D01*
X71223095Y-44664285D01*
X71270714Y-44473809D01*
X71270714Y-44330952D01*
X71223095Y-44140476D01*
X71175476Y-44045238D01*
X71080238Y-43950000D01*
X70937380Y-43902380D01*
X70842142Y-43902380D01*
X70699285Y-43950000D01*
X70651666Y-43997619D01*
X69746904Y-43902380D02*
X70223095Y-43902380D01*
X70270714Y-44378571D01*
X70223095Y-44330952D01*
X70127857Y-44283333D01*
X69889761Y-44283333D01*
X69794523Y-44330952D01*
X69746904Y-44378571D01*
X69699285Y-44473809D01*
X69699285Y-44711904D01*
X69746904Y-44807142D01*
X69794523Y-44854761D01*
X69889761Y-44902380D01*
X70127857Y-44902380D01*
X70223095Y-44854761D01*
X70270714Y-44807142D01*
G04 #@! TO.C,C4*
X58586666Y-44172142D02*
X58634285Y-44219761D01*
X58777142Y-44267380D01*
X58872380Y-44267380D01*
X59015238Y-44219761D01*
X59110476Y-44124523D01*
X59158095Y-44029285D01*
X59205714Y-43838809D01*
X59205714Y-43695952D01*
X59158095Y-43505476D01*
X59110476Y-43410238D01*
X59015238Y-43315000D01*
X58872380Y-43267380D01*
X58777142Y-43267380D01*
X58634285Y-43315000D01*
X58586666Y-43362619D01*
X57729523Y-43600714D02*
X57729523Y-44267380D01*
X57967619Y-43219761D02*
X58205714Y-43934047D01*
X57586666Y-43934047D01*
G04 #@! TO.C,C3*
X50966666Y-46712142D02*
X51014285Y-46759761D01*
X51157142Y-46807380D01*
X51252380Y-46807380D01*
X51395238Y-46759761D01*
X51490476Y-46664523D01*
X51538095Y-46569285D01*
X51585714Y-46378809D01*
X51585714Y-46235952D01*
X51538095Y-46045476D01*
X51490476Y-45950238D01*
X51395238Y-45855000D01*
X51252380Y-45807380D01*
X51157142Y-45807380D01*
X51014285Y-45855000D01*
X50966666Y-45902619D01*
X50633333Y-45807380D02*
X50014285Y-45807380D01*
X50347619Y-46188333D01*
X50204761Y-46188333D01*
X50109523Y-46235952D01*
X50061904Y-46283571D01*
X50014285Y-46378809D01*
X50014285Y-46616904D01*
X50061904Y-46712142D01*
X50109523Y-46759761D01*
X50204761Y-46807380D01*
X50490476Y-46807380D01*
X50585714Y-46759761D01*
X50633333Y-46712142D01*
G04 #@! TO.C,C2*
X43854666Y-55602142D02*
X43902285Y-55649761D01*
X44045142Y-55697380D01*
X44140380Y-55697380D01*
X44283238Y-55649761D01*
X44378476Y-55554523D01*
X44426095Y-55459285D01*
X44473714Y-55268809D01*
X44473714Y-55125952D01*
X44426095Y-54935476D01*
X44378476Y-54840238D01*
X44283238Y-54745000D01*
X44140380Y-54697380D01*
X44045142Y-54697380D01*
X43902285Y-54745000D01*
X43854666Y-54792619D01*
X43473714Y-54792619D02*
X43426095Y-54745000D01*
X43330857Y-54697380D01*
X43092761Y-54697380D01*
X42997523Y-54745000D01*
X42949904Y-54792619D01*
X42902285Y-54887857D01*
X42902285Y-54983095D01*
X42949904Y-55125952D01*
X43521333Y-55697380D01*
X42902285Y-55697380D01*
G04 #@! TO.C,C1*
X41314666Y-44172142D02*
X41362285Y-44219761D01*
X41505142Y-44267380D01*
X41600380Y-44267380D01*
X41743238Y-44219761D01*
X41838476Y-44124523D01*
X41886095Y-44029285D01*
X41933714Y-43838809D01*
X41933714Y-43695952D01*
X41886095Y-43505476D01*
X41838476Y-43410238D01*
X41743238Y-43315000D01*
X41600380Y-43267380D01*
X41505142Y-43267380D01*
X41362285Y-43315000D01*
X41314666Y-43362619D01*
X40362285Y-44267380D02*
X40933714Y-44267380D01*
X40648000Y-44267380D02*
X40648000Y-43267380D01*
X40743238Y-43410238D01*
X40838476Y-43505476D01*
X40933714Y-43553095D01*
G04 #@! TD*
M02*
