G04 #@! TF.GenerationSoftware,KiCad,Pcbnew,(5.1.10)-1*
G04 #@! TF.CreationDate,2021-07-15T20:03:02+02:00*
G04 #@! TF.ProjectId,wobbly,776f6262-6c79-42e6-9b69-6361645f7063,v1.0*
G04 #@! TF.SameCoordinates,Original*
G04 #@! TF.FileFunction,Soldermask,Bot*
G04 #@! TF.FilePolarity,Negative*
%FSLAX46Y46*%
G04 Gerber Fmt 4.6, Leading zero omitted, Abs format (unit mm)*
G04 Created by KiCad (PCBNEW (5.1.10)-1) date 2021-07-15 20:03:02*
%MOMM*%
%LPD*%
G01*
G04 APERTURE LIST*
%ADD10O,1.801600X1.801600*%
%ADD11C,5.801600*%
%ADD12C,2.101600*%
%ADD13C,1.601600*%
%ADD14O,2.851600X2.851600*%
%ADD15C,1.801600*%
%ADD16O,2.101600X2.101600*%
G04 APERTURE END LIST*
G04 #@! TO.C,U2*
G36*
G01*
X67475000Y-51205800D02*
X65325000Y-51205800D01*
G75*
G02*
X65274200Y-51155000I0J50800D01*
G01*
X65274200Y-47905000D01*
G75*
G02*
X65325000Y-47854200I50800J0D01*
G01*
X67475000Y-47854200D01*
G75*
G02*
X67525800Y-47905000I0J-50800D01*
G01*
X67525800Y-51155000D01*
G75*
G02*
X67475000Y-51205800I-50800J0D01*
G01*
G37*
G36*
G01*
X61675000Y-47755800D02*
X59525000Y-47755800D01*
G75*
G02*
X59474200Y-47705000I0J50800D01*
G01*
X59474200Y-46755000D01*
G75*
G02*
X59525000Y-46704200I50800J0D01*
G01*
X61675000Y-46704200D01*
G75*
G02*
X61725800Y-46755000I0J-50800D01*
G01*
X61725800Y-47705000D01*
G75*
G02*
X61675000Y-47755800I-50800J0D01*
G01*
G37*
G36*
G01*
X61675000Y-50055800D02*
X59525000Y-50055800D01*
G75*
G02*
X59474200Y-50005000I0J50800D01*
G01*
X59474200Y-49055000D01*
G75*
G02*
X59525000Y-49004200I50800J0D01*
G01*
X61675000Y-49004200D01*
G75*
G02*
X61725800Y-49055000I0J-50800D01*
G01*
X61725800Y-50005000D01*
G75*
G02*
X61675000Y-50055800I-50800J0D01*
G01*
G37*
G36*
G01*
X61675000Y-52355800D02*
X59525000Y-52355800D01*
G75*
G02*
X59474200Y-52305000I0J50800D01*
G01*
X59474200Y-51355000D01*
G75*
G02*
X59525000Y-51304200I50800J0D01*
G01*
X61675000Y-51304200D01*
G75*
G02*
X61725800Y-51355000I0J-50800D01*
G01*
X61725800Y-52305000D01*
G75*
G02*
X61675000Y-52355800I-50800J0D01*
G01*
G37*
G04 #@! TD*
D10*
G04 #@! TO.C,J10*
X67310000Y-64770000D03*
X64770000Y-64770000D03*
X62230000Y-64770000D03*
X59690000Y-64770000D03*
X57150000Y-64770000D03*
X54610000Y-64770000D03*
X52070000Y-64770000D03*
X49530000Y-64770000D03*
X46990000Y-64770000D03*
X44450000Y-64770000D03*
X41910000Y-64770000D03*
X39370000Y-64770000D03*
X36830000Y-64770000D03*
G36*
G01*
X35140000Y-65670800D02*
X33440000Y-65670800D01*
G75*
G02*
X33389200Y-65620000I0J50800D01*
G01*
X33389200Y-63920000D01*
G75*
G02*
X33440000Y-63869200I50800J0D01*
G01*
X35140000Y-63869200D01*
G75*
G02*
X35190800Y-63920000I0J-50800D01*
G01*
X35190800Y-65620000D01*
G75*
G02*
X35140000Y-65670800I-50800J0D01*
G01*
G37*
G04 #@! TD*
D11*
G04 #@! TO.C,H4*
X29400000Y-91400000D03*
G04 #@! TD*
G04 #@! TO.C,H3*
X121400000Y-91400000D03*
G04 #@! TD*
G04 #@! TO.C,H2*
X121400000Y-29400000D03*
G04 #@! TD*
G04 #@! TO.C,H1*
X29400000Y-29400000D03*
G04 #@! TD*
G04 #@! TO.C,Q1*
G36*
G01*
X41600000Y-35590800D02*
X40950000Y-35590800D01*
G75*
G02*
X40899200Y-35540000I0J50800D01*
G01*
X40899200Y-33790000D01*
G75*
G02*
X40950000Y-33739200I50800J0D01*
G01*
X41600000Y-33739200D01*
G75*
G02*
X41650800Y-33790000I0J-50800D01*
G01*
X41650800Y-35540000D01*
G75*
G02*
X41600000Y-35590800I-50800J0D01*
G01*
G37*
G36*
G01*
X40330000Y-35590800D02*
X39680000Y-35590800D01*
G75*
G02*
X39629200Y-35540000I0J50800D01*
G01*
X39629200Y-33790000D01*
G75*
G02*
X39680000Y-33739200I50800J0D01*
G01*
X40330000Y-33739200D01*
G75*
G02*
X40380800Y-33790000I0J-50800D01*
G01*
X40380800Y-35540000D01*
G75*
G02*
X40330000Y-35590800I-50800J0D01*
G01*
G37*
G36*
G01*
X39060000Y-35590800D02*
X38410000Y-35590800D01*
G75*
G02*
X38359200Y-35540000I0J50800D01*
G01*
X38359200Y-33790000D01*
G75*
G02*
X38410000Y-33739200I50800J0D01*
G01*
X39060000Y-33739200D01*
G75*
G02*
X39110800Y-33790000I0J-50800D01*
G01*
X39110800Y-35540000D01*
G75*
G02*
X39060000Y-35590800I-50800J0D01*
G01*
G37*
G36*
G01*
X37790000Y-35590800D02*
X37140000Y-35590800D01*
G75*
G02*
X37089200Y-35540000I0J50800D01*
G01*
X37089200Y-33790000D01*
G75*
G02*
X37140000Y-33739200I50800J0D01*
G01*
X37790000Y-33739200D01*
G75*
G02*
X37840800Y-33790000I0J-50800D01*
G01*
X37840800Y-35540000D01*
G75*
G02*
X37790000Y-35590800I-50800J0D01*
G01*
G37*
G36*
G01*
X37790000Y-41190800D02*
X37140000Y-41190800D01*
G75*
G02*
X37089200Y-41140000I0J50800D01*
G01*
X37089200Y-39390000D01*
G75*
G02*
X37140000Y-39339200I50800J0D01*
G01*
X37790000Y-39339200D01*
G75*
G02*
X37840800Y-39390000I0J-50800D01*
G01*
X37840800Y-41140000D01*
G75*
G02*
X37790000Y-41190800I-50800J0D01*
G01*
G37*
G36*
G01*
X39060000Y-41190800D02*
X38410000Y-41190800D01*
G75*
G02*
X38359200Y-41140000I0J50800D01*
G01*
X38359200Y-39390000D01*
G75*
G02*
X38410000Y-39339200I50800J0D01*
G01*
X39060000Y-39339200D01*
G75*
G02*
X39110800Y-39390000I0J-50800D01*
G01*
X39110800Y-41140000D01*
G75*
G02*
X39060000Y-41190800I-50800J0D01*
G01*
G37*
G36*
G01*
X40330000Y-41190800D02*
X39680000Y-41190800D01*
G75*
G02*
X39629200Y-41140000I0J50800D01*
G01*
X39629200Y-39390000D01*
G75*
G02*
X39680000Y-39339200I50800J0D01*
G01*
X40330000Y-39339200D01*
G75*
G02*
X40380800Y-39390000I0J-50800D01*
G01*
X40380800Y-41140000D01*
G75*
G02*
X40330000Y-41190800I-50800J0D01*
G01*
G37*
G36*
G01*
X41600000Y-41190800D02*
X40950000Y-41190800D01*
G75*
G02*
X40899200Y-41140000I0J50800D01*
G01*
X40899200Y-39390000D01*
G75*
G02*
X40950000Y-39339200I50800J0D01*
G01*
X41600000Y-39339200D01*
G75*
G02*
X41650800Y-39390000I0J-50800D01*
G01*
X41650800Y-41140000D01*
G75*
G02*
X41600000Y-41190800I-50800J0D01*
G01*
G37*
G04 #@! TD*
D12*
G04 #@! TO.C,BZ1*
X80010000Y-41890000D03*
G36*
G01*
X79010000Y-33239200D02*
X81010000Y-33239200D01*
G75*
G02*
X81060800Y-33290000I0J-50800D01*
G01*
X81060800Y-35290000D01*
G75*
G02*
X81010000Y-35340800I-50800J0D01*
G01*
X79010000Y-35340800D01*
G75*
G02*
X78959200Y-35290000I0J50800D01*
G01*
X78959200Y-33290000D01*
G75*
G02*
X79010000Y-33239200I50800J0D01*
G01*
G37*
G04 #@! TD*
D13*
G04 #@! TO.C,Y1*
X106955681Y-72749319D03*
X103505000Y-76200000D03*
G04 #@! TD*
G04 #@! TO.C,U1*
G36*
G01*
X45565000Y-50880800D02*
X42065000Y-50880800D01*
G75*
G02*
X42014200Y-50830000I0J50800D01*
G01*
X42014200Y-48230000D01*
G75*
G02*
X42065000Y-48179200I50800J0D01*
G01*
X45565000Y-48179200D01*
G75*
G02*
X45615800Y-48230000I0J-50800D01*
G01*
X45615800Y-50830000D01*
G75*
G02*
X45565000Y-50880800I-50800J0D01*
G01*
G37*
G36*
G01*
X45975000Y-47380800D02*
X45465000Y-47380800D01*
G75*
G02*
X45414200Y-47330000I0J50800D01*
G01*
X45414200Y-46430000D01*
G75*
G02*
X45465000Y-46379200I50800J0D01*
G01*
X45975000Y-46379200D01*
G75*
G02*
X46025800Y-46430000I0J-50800D01*
G01*
X46025800Y-47330000D01*
G75*
G02*
X45975000Y-47380800I-50800J0D01*
G01*
G37*
G36*
G01*
X44705000Y-47380800D02*
X44195000Y-47380800D01*
G75*
G02*
X44144200Y-47330000I0J50800D01*
G01*
X44144200Y-46430000D01*
G75*
G02*
X44195000Y-46379200I50800J0D01*
G01*
X44705000Y-46379200D01*
G75*
G02*
X44755800Y-46430000I0J-50800D01*
G01*
X44755800Y-47330000D01*
G75*
G02*
X44705000Y-47380800I-50800J0D01*
G01*
G37*
G36*
G01*
X43435000Y-47380800D02*
X42925000Y-47380800D01*
G75*
G02*
X42874200Y-47330000I0J50800D01*
G01*
X42874200Y-46430000D01*
G75*
G02*
X42925000Y-46379200I50800J0D01*
G01*
X43435000Y-46379200D01*
G75*
G02*
X43485800Y-46430000I0J-50800D01*
G01*
X43485800Y-47330000D01*
G75*
G02*
X43435000Y-47380800I-50800J0D01*
G01*
G37*
G36*
G01*
X42165000Y-47380800D02*
X41655000Y-47380800D01*
G75*
G02*
X41604200Y-47330000I0J50800D01*
G01*
X41604200Y-46430000D01*
G75*
G02*
X41655000Y-46379200I50800J0D01*
G01*
X42165000Y-46379200D01*
G75*
G02*
X42215800Y-46430000I0J-50800D01*
G01*
X42215800Y-47330000D01*
G75*
G02*
X42165000Y-47380800I-50800J0D01*
G01*
G37*
G36*
G01*
X42165000Y-52680800D02*
X41655000Y-52680800D01*
G75*
G02*
X41604200Y-52630000I0J50800D01*
G01*
X41604200Y-51730000D01*
G75*
G02*
X41655000Y-51679200I50800J0D01*
G01*
X42165000Y-51679200D01*
G75*
G02*
X42215800Y-51730000I0J-50800D01*
G01*
X42215800Y-52630000D01*
G75*
G02*
X42165000Y-52680800I-50800J0D01*
G01*
G37*
G36*
G01*
X43435000Y-52680800D02*
X42925000Y-52680800D01*
G75*
G02*
X42874200Y-52630000I0J50800D01*
G01*
X42874200Y-51730000D01*
G75*
G02*
X42925000Y-51679200I50800J0D01*
G01*
X43435000Y-51679200D01*
G75*
G02*
X43485800Y-51730000I0J-50800D01*
G01*
X43485800Y-52630000D01*
G75*
G02*
X43435000Y-52680800I-50800J0D01*
G01*
G37*
G36*
G01*
X44705000Y-52680800D02*
X44195000Y-52680800D01*
G75*
G02*
X44144200Y-52630000I0J50800D01*
G01*
X44144200Y-51730000D01*
G75*
G02*
X44195000Y-51679200I50800J0D01*
G01*
X44705000Y-51679200D01*
G75*
G02*
X44755800Y-51730000I0J-50800D01*
G01*
X44755800Y-52630000D01*
G75*
G02*
X44705000Y-52680800I-50800J0D01*
G01*
G37*
G36*
G01*
X45975000Y-52680800D02*
X45465000Y-52680800D01*
G75*
G02*
X45414200Y-52630000I0J50800D01*
G01*
X45414200Y-51730000D01*
G75*
G02*
X45465000Y-51679200I50800J0D01*
G01*
X45975000Y-51679200D01*
G75*
G02*
X46025800Y-51730000I0J-50800D01*
G01*
X46025800Y-52630000D01*
G75*
G02*
X45975000Y-52680800I-50800J0D01*
G01*
G37*
G04 #@! TD*
D14*
G04 #@! TO.C,SW1*
X38860000Y-29210000D03*
X43560000Y-29210000D03*
G36*
G01*
X49635000Y-30635800D02*
X46885000Y-30635800D01*
G75*
G02*
X46834200Y-30585000I0J50800D01*
G01*
X46834200Y-27835000D01*
G75*
G02*
X46885000Y-27784200I50800J0D01*
G01*
X49635000Y-27784200D01*
G75*
G02*
X49685800Y-27835000I0J-50800D01*
G01*
X49685800Y-30585000D01*
G75*
G02*
X49635000Y-30635800I-50800J0D01*
G01*
G37*
G04 #@! TD*
G04 #@! TO.C,R5*
G36*
G01*
X39690800Y-56935000D02*
X39690800Y-58635000D01*
G75*
G02*
X39640000Y-58685800I-50800J0D01*
G01*
X38740000Y-58685800D01*
G75*
G02*
X38689200Y-58635000I0J50800D01*
G01*
X38689200Y-56935000D01*
G75*
G02*
X38740000Y-56884200I50800J0D01*
G01*
X39640000Y-56884200D01*
G75*
G02*
X39690800Y-56935000I0J-50800D01*
G01*
G37*
G36*
G01*
X42590800Y-56935000D02*
X42590800Y-58635000D01*
G75*
G02*
X42540000Y-58685800I-50800J0D01*
G01*
X41640000Y-58685800D01*
G75*
G02*
X41589200Y-58635000I0J50800D01*
G01*
X41589200Y-56935000D01*
G75*
G02*
X41640000Y-56884200I50800J0D01*
G01*
X42540000Y-56884200D01*
G75*
G02*
X42590800Y-56935000I0J-50800D01*
G01*
G37*
G04 #@! TD*
G04 #@! TO.C,R4*
G36*
G01*
X44770800Y-56935000D02*
X44770800Y-58635000D01*
G75*
G02*
X44720000Y-58685800I-50800J0D01*
G01*
X43820000Y-58685800D01*
G75*
G02*
X43769200Y-58635000I0J50800D01*
G01*
X43769200Y-56935000D01*
G75*
G02*
X43820000Y-56884200I50800J0D01*
G01*
X44720000Y-56884200D01*
G75*
G02*
X44770800Y-56935000I0J-50800D01*
G01*
G37*
G36*
G01*
X47670800Y-56935000D02*
X47670800Y-58635000D01*
G75*
G02*
X47620000Y-58685800I-50800J0D01*
G01*
X46720000Y-58685800D01*
G75*
G02*
X46669200Y-58635000I0J50800D01*
G01*
X46669200Y-56935000D01*
G75*
G02*
X46720000Y-56884200I50800J0D01*
G01*
X47620000Y-56884200D01*
G75*
G02*
X47670800Y-56935000I0J-50800D01*
G01*
G37*
G04 #@! TD*
G04 #@! TO.C,R3*
G36*
G01*
X49950000Y-52024200D02*
X51650000Y-52024200D01*
G75*
G02*
X51700800Y-52075000I0J-50800D01*
G01*
X51700800Y-52975000D01*
G75*
G02*
X51650000Y-53025800I-50800J0D01*
G01*
X49950000Y-53025800D01*
G75*
G02*
X49899200Y-52975000I0J50800D01*
G01*
X49899200Y-52075000D01*
G75*
G02*
X49950000Y-52024200I50800J0D01*
G01*
G37*
G36*
G01*
X49950000Y-54924200D02*
X51650000Y-54924200D01*
G75*
G02*
X51700800Y-54975000I0J-50800D01*
G01*
X51700800Y-55875000D01*
G75*
G02*
X51650000Y-55925800I-50800J0D01*
G01*
X49950000Y-55925800D01*
G75*
G02*
X49899200Y-55875000I0J50800D01*
G01*
X49899200Y-54975000D01*
G75*
G02*
X49950000Y-54924200I50800J0D01*
G01*
G37*
G04 #@! TD*
G04 #@! TO.C,L1*
G36*
G01*
X49524200Y-38565000D02*
X49524200Y-36365000D01*
G75*
G02*
X49575000Y-36314200I50800J0D01*
G01*
X51575000Y-36314200D01*
G75*
G02*
X51625800Y-36365000I0J-50800D01*
G01*
X51625800Y-38565000D01*
G75*
G02*
X51575000Y-38615800I-50800J0D01*
G01*
X49575000Y-38615800D01*
G75*
G02*
X49524200Y-38565000I0J50800D01*
G01*
G37*
G36*
G01*
X43624200Y-38565000D02*
X43624200Y-36365000D01*
G75*
G02*
X43675000Y-36314200I50800J0D01*
G01*
X45675000Y-36314200D01*
G75*
G02*
X45725800Y-36365000I0J-50800D01*
G01*
X45725800Y-38565000D01*
G75*
G02*
X45675000Y-38615800I-50800J0D01*
G01*
X43675000Y-38615800D01*
G75*
G02*
X43624200Y-38565000I0J50800D01*
G01*
G37*
G04 #@! TD*
D15*
G04 #@! TO.C,J9*
X105410000Y-55880000D03*
X102870000Y-55880000D03*
X100330000Y-55880000D03*
G36*
G01*
X96940000Y-54979200D02*
X98640000Y-54979200D01*
G75*
G02*
X98690800Y-55030000I0J-50800D01*
G01*
X98690800Y-56730000D01*
G75*
G02*
X98640000Y-56780800I-50800J0D01*
G01*
X96940000Y-56780800D01*
G75*
G02*
X96889200Y-56730000I0J50800D01*
G01*
X96889200Y-55030000D01*
G75*
G02*
X96940000Y-54979200I50800J0D01*
G01*
G37*
G04 #@! TD*
G04 #@! TO.C,J8*
X92710000Y-55880000D03*
X90170000Y-55880000D03*
X87630000Y-55880000D03*
G36*
G01*
X84240000Y-54979200D02*
X85940000Y-54979200D01*
G75*
G02*
X85990800Y-55030000I0J-50800D01*
G01*
X85990800Y-56730000D01*
G75*
G02*
X85940000Y-56780800I-50800J0D01*
G01*
X84240000Y-56780800D01*
G75*
G02*
X84189200Y-56730000I0J50800D01*
G01*
X84189200Y-55030000D01*
G75*
G02*
X84240000Y-54979200I50800J0D01*
G01*
G37*
G04 #@! TD*
G04 #@! TO.C,J7*
X74930000Y-55880000D03*
X72390000Y-55880000D03*
X69850000Y-55880000D03*
X67310000Y-55880000D03*
X64770000Y-55880000D03*
X62230000Y-55880000D03*
X59690000Y-55880000D03*
G36*
G01*
X56300000Y-54979200D02*
X58000000Y-54979200D01*
G75*
G02*
X58050800Y-55030000I0J-50800D01*
G01*
X58050800Y-56730000D01*
G75*
G02*
X58000000Y-56780800I-50800J0D01*
G01*
X56300000Y-56780800D01*
G75*
G02*
X56249200Y-56730000I0J50800D01*
G01*
X56249200Y-55030000D01*
G75*
G02*
X56300000Y-54979200I50800J0D01*
G01*
G37*
G04 #@! TD*
G04 #@! TO.C,J6*
X64770000Y-27305000D03*
X62230000Y-27305000D03*
X59690000Y-27305000D03*
G36*
G01*
X56300000Y-26404200D02*
X58000000Y-26404200D01*
G75*
G02*
X58050800Y-26455000I0J-50800D01*
G01*
X58050800Y-28155000D01*
G75*
G02*
X58000000Y-28205800I-50800J0D01*
G01*
X56300000Y-28205800D01*
G75*
G02*
X56249200Y-28155000I0J50800D01*
G01*
X56249200Y-26455000D01*
G75*
G02*
X56300000Y-26404200I50800J0D01*
G01*
G37*
G04 #@! TD*
G04 #@! TO.C,J5*
X115570000Y-27305000D03*
X113030000Y-27305000D03*
G36*
G01*
X109640000Y-26404200D02*
X111340000Y-26404200D01*
G75*
G02*
X111390800Y-26455000I0J-50800D01*
G01*
X111390800Y-28155000D01*
G75*
G02*
X111340000Y-28205800I-50800J0D01*
G01*
X109640000Y-28205800D01*
G75*
G02*
X109589200Y-28155000I0J50800D01*
G01*
X109589200Y-26455000D01*
G75*
G02*
X109640000Y-26404200I50800J0D01*
G01*
G37*
G04 #@! TD*
G04 #@! TO.C,J4*
X105410000Y-27305000D03*
X102870000Y-27305000D03*
X100330000Y-27305000D03*
X97790000Y-27305000D03*
X95250000Y-27305000D03*
G36*
G01*
X91860000Y-26404200D02*
X93560000Y-26404200D01*
G75*
G02*
X93610800Y-26455000I0J-50800D01*
G01*
X93610800Y-28155000D01*
G75*
G02*
X93560000Y-28205800I-50800J0D01*
G01*
X91860000Y-28205800D01*
G75*
G02*
X91809200Y-28155000I0J50800D01*
G01*
X91809200Y-26455000D01*
G75*
G02*
X91860000Y-26404200I50800J0D01*
G01*
G37*
G04 #@! TD*
G04 #@! TO.C,J3*
X95250000Y-88900000D03*
X95250000Y-91440000D03*
X92710000Y-88900000D03*
X92710000Y-91440000D03*
X90170000Y-88900000D03*
G36*
G01*
X91020000Y-92340800D02*
X89320000Y-92340800D01*
G75*
G02*
X89269200Y-92290000I0J50800D01*
G01*
X89269200Y-90590000D01*
G75*
G02*
X89320000Y-90539200I50800J0D01*
G01*
X91020000Y-90539200D01*
G75*
G02*
X91070800Y-90590000I0J-50800D01*
G01*
X91070800Y-92290000D01*
G75*
G02*
X91020000Y-92340800I-50800J0D01*
G01*
G37*
G04 #@! TD*
D16*
G04 #@! TO.C,J2*
X33655000Y-56205000D03*
G36*
G01*
X32655000Y-51654200D02*
X34655000Y-51654200D01*
G75*
G02*
X34705800Y-51705000I0J-50800D01*
G01*
X34705800Y-53705000D01*
G75*
G02*
X34655000Y-53755800I-50800J0D01*
G01*
X32655000Y-53755800D01*
G75*
G02*
X32604200Y-53705000I0J50800D01*
G01*
X32604200Y-51705000D01*
G75*
G02*
X32655000Y-51654200I50800J0D01*
G01*
G37*
G04 #@! TD*
G04 #@! TO.C,J1*
X33655000Y-45410000D03*
G36*
G01*
X32655000Y-40859200D02*
X34655000Y-40859200D01*
G75*
G02*
X34705800Y-40910000I0J-50800D01*
G01*
X34705800Y-42910000D01*
G75*
G02*
X34655000Y-42960800I-50800J0D01*
G01*
X32655000Y-42960800D01*
G75*
G02*
X32604200Y-42910000I0J50800D01*
G01*
X32604200Y-40910000D01*
G75*
G02*
X32655000Y-40859200I50800J0D01*
G01*
G37*
G04 #@! TD*
G04 #@! TO.C,C14*
G36*
G01*
X114465000Y-40425800D02*
X112865000Y-40425800D01*
G75*
G02*
X112814200Y-40375000I0J50800D01*
G01*
X112814200Y-37175000D01*
G75*
G02*
X112865000Y-37124200I50800J0D01*
G01*
X114465000Y-37124200D01*
G75*
G02*
X114515800Y-37175000I0J-50800D01*
G01*
X114515800Y-40375000D01*
G75*
G02*
X114465000Y-40425800I-50800J0D01*
G01*
G37*
G36*
G01*
X114465000Y-45425800D02*
X112865000Y-45425800D01*
G75*
G02*
X112814200Y-45375000I0J50800D01*
G01*
X112814200Y-42175000D01*
G75*
G02*
X112865000Y-42124200I50800J0D01*
G01*
X114465000Y-42124200D01*
G75*
G02*
X114515800Y-42175000I0J-50800D01*
G01*
X114515800Y-45375000D01*
G75*
G02*
X114465000Y-45425800I-50800J0D01*
G01*
G37*
G04 #@! TD*
G04 #@! TO.C,C5*
G36*
G01*
X69370000Y-50764200D02*
X71600000Y-50764200D01*
G75*
G02*
X71650800Y-50815000I0J-50800D01*
G01*
X71650800Y-53185000D01*
G75*
G02*
X71600000Y-53235800I-50800J0D01*
G01*
X69370000Y-53235800D01*
G75*
G02*
X69319200Y-53185000I0J50800D01*
G01*
X69319200Y-50815000D01*
G75*
G02*
X69370000Y-50764200I50800J0D01*
G01*
G37*
G36*
G01*
X69370000Y-45824200D02*
X71600000Y-45824200D01*
G75*
G02*
X71650800Y-45875000I0J-50800D01*
G01*
X71650800Y-48245000D01*
G75*
G02*
X71600000Y-48295800I-50800J0D01*
G01*
X69370000Y-48295800D01*
G75*
G02*
X69319200Y-48245000I0J50800D01*
G01*
X69319200Y-45875000D01*
G75*
G02*
X69370000Y-45824200I50800J0D01*
G01*
G37*
G04 #@! TD*
G04 #@! TO.C,C4*
G36*
G01*
X64734200Y-44930000D02*
X64734200Y-42700000D01*
G75*
G02*
X64785000Y-42649200I50800J0D01*
G01*
X67155000Y-42649200D01*
G75*
G02*
X67205800Y-42700000I0J-50800D01*
G01*
X67205800Y-44930000D01*
G75*
G02*
X67155000Y-44980800I-50800J0D01*
G01*
X64785000Y-44980800D01*
G75*
G02*
X64734200Y-44930000I0J50800D01*
G01*
G37*
G36*
G01*
X59794200Y-44930000D02*
X59794200Y-42700000D01*
G75*
G02*
X59845000Y-42649200I50800J0D01*
G01*
X62215000Y-42649200D01*
G75*
G02*
X62265800Y-42700000I0J-50800D01*
G01*
X62265800Y-44930000D01*
G75*
G02*
X62215000Y-44980800I-50800J0D01*
G01*
X59845000Y-44980800D01*
G75*
G02*
X59794200Y-44930000I0J50800D01*
G01*
G37*
G04 #@! TD*
G04 #@! TO.C,C3*
G36*
G01*
X48880800Y-42415000D02*
X48880800Y-45215000D01*
G75*
G02*
X48830000Y-45265800I-50800J0D01*
G01*
X47430000Y-45265800D01*
G75*
G02*
X47379200Y-45215000I0J50800D01*
G01*
X47379200Y-42415000D01*
G75*
G02*
X47430000Y-42364200I50800J0D01*
G01*
X48830000Y-42364200D01*
G75*
G02*
X48880800Y-42415000I0J-50800D01*
G01*
G37*
G36*
G01*
X51680800Y-42415000D02*
X51680800Y-45215000D01*
G75*
G02*
X51630000Y-45265800I-50800J0D01*
G01*
X50230000Y-45265800D01*
G75*
G02*
X50179200Y-45215000I0J50800D01*
G01*
X50179200Y-42415000D01*
G75*
G02*
X50230000Y-42364200I50800J0D01*
G01*
X51630000Y-42364200D01*
G75*
G02*
X51680800Y-42415000I0J-50800D01*
G01*
G37*
G04 #@! TD*
G04 #@! TO.C,C2*
G36*
G01*
X47864200Y-56145000D02*
X47864200Y-54345000D01*
G75*
G02*
X47915000Y-54294200I50800J0D01*
G01*
X49065000Y-54294200D01*
G75*
G02*
X49115800Y-54345000I0J-50800D01*
G01*
X49115800Y-56145000D01*
G75*
G02*
X49065000Y-56195800I-50800J0D01*
G01*
X47915000Y-56195800D01*
G75*
G02*
X47864200Y-56145000I0J50800D01*
G01*
G37*
G36*
G01*
X44864200Y-56145000D02*
X44864200Y-54345000D01*
G75*
G02*
X44915000Y-54294200I50800J0D01*
G01*
X46065000Y-54294200D01*
G75*
G02*
X46115800Y-54345000I0J-50800D01*
G01*
X46115800Y-56145000D01*
G75*
G02*
X46065000Y-56195800I-50800J0D01*
G01*
X44915000Y-56195800D01*
G75*
G02*
X44864200Y-56145000I0J50800D01*
G01*
G37*
G04 #@! TD*
G04 #@! TO.C,C1*
G36*
G01*
X45324200Y-44715000D02*
X45324200Y-42915000D01*
G75*
G02*
X45375000Y-42864200I50800J0D01*
G01*
X46525000Y-42864200D01*
G75*
G02*
X46575800Y-42915000I0J-50800D01*
G01*
X46575800Y-44715000D01*
G75*
G02*
X46525000Y-44765800I-50800J0D01*
G01*
X45375000Y-44765800D01*
G75*
G02*
X45324200Y-44715000I0J50800D01*
G01*
G37*
G36*
G01*
X42324200Y-44715000D02*
X42324200Y-42915000D01*
G75*
G02*
X42375000Y-42864200I50800J0D01*
G01*
X43525000Y-42864200D01*
G75*
G02*
X43575800Y-42915000I0J-50800D01*
G01*
X43575800Y-44715000D01*
G75*
G02*
X43525000Y-44765800I-50800J0D01*
G01*
X42375000Y-44765800D01*
G75*
G02*
X42324200Y-44715000I0J50800D01*
G01*
G37*
G04 #@! TD*
M02*
