M48
INCH,TZ
T1C0.0118
T2C0.0315
T3C0.0394
T4C0.0728
T5C0.1260
%
G90
G05
T1
X14250Y-32500
X16750Y-19250
X16750Y-19750
X17250Y-19250
X17250Y-19750
X17750Y-19250
X17750Y-19750
X20750Y-11750
X20750Y-20750
X21000Y-21000
X22750Y-33500
X23500Y-16000
X24000Y-11750
X24000Y-14500
X24000Y-16000
X24500Y-16000
X26500Y-20500
X27250Y-11750
X27250Y-14500
X28000Y-29250
X28000Y-30250
X29500Y-21000
X29750Y-21000
X32500Y-22000
X33000Y-26750
X33500Y-23750
X33500Y-28750
X33750Y-24250
X34000Y-24750
X34250Y-25250
X34500Y-20000
X35000Y-27250
X35000Y-30250
X35750Y-11750
X35750Y-32250
X36000Y-24250
X36250Y-24750
X36500Y-28750
X37000Y-19000
X37000Y-30750
X37500Y-26250
X37750Y-20500
X37750Y-26750
X38000Y-27250
X39000Y-11750
X39000Y-14500
X39000Y-34250
X39000Y-36500
X39500Y-20000
X40750Y-25750
X40750Y-31500
X40750Y-32000
X42000Y-19000
X42250Y-11750
X42250Y-14500
X42750Y-20500
X44750Y-18250
X44750Y-18500
X45750Y-25250
X47000Y-17250
X47000Y-21000
X47000Y-24750
T2
X40750Y-30000
X42109Y-28641
T3
X13250Y-16500
X13250Y-17878
X13250Y-20750
X13250Y-22128
X13500Y-25500
X14500Y-25500
X15500Y-25500
X16500Y-25500
X17500Y-25500
X18500Y-25500
X19500Y-25500
X20500Y-25500
X21500Y-25500
X22500Y-10750
X22500Y-22000
X22500Y-25500
X23500Y-10750
X23500Y-22000
X23500Y-25500
X24500Y-10750
X24500Y-22000
X24500Y-25500
X25500Y-10750
X25500Y-22000
X25500Y-25500
X26500Y-22000
X26500Y-25500
X27500Y-22000
X28500Y-22000
X29500Y-22000
X31500Y-13500
X31500Y-16492
X33500Y-22000
X34500Y-22000
X35500Y-22000
X35500Y-35000
X35500Y-36000
X36500Y-10750
X36500Y-22000
X36500Y-35000
X36500Y-36000
X37500Y-10750
X37500Y-35000
X37500Y-36000
X38500Y-10750
X38500Y-22000
X39500Y-10750
X39500Y-22000
X40500Y-10750
X40500Y-22000
X41500Y-10750
X41500Y-22000
X43500Y-10750
X44500Y-10750
X45500Y-10750
T4
X15299Y-11500
X17150Y-11500
X19000Y-11500
T5
X11575Y-11575
X11575Y-35984
X47795Y-11575
X47795Y-35984
T0
M30
